<svg width="20" height="20" viewBox="0 0 20 20" fill="none" xmlns="http://www.w3.org/2000/svg">
<path d="M14.3932 20C10.8871 20 7.14305 18.7117 4.21562 15.7843C1.29309 12.8618 0 9.12016 0 5.60676C0 2.51031 2.50516 0 5.60676 0C5.84637 0 6.0618 0.145859 6.15078 0.36832L8.66121 6.64437C8.78141 6.94484 8.63527 7.28582 8.33484 7.40602L5.57715 8.50906C5.77223 11.6816 8.31887 14.2281 11.4909 14.4229L12.594 11.6652C12.7139 11.3653 13.0548 11.2186 13.3557 11.3388L19.6316 13.8492C19.8541 13.9382 20 14.1536 20 14.3932C20 17.4897 17.4948 20 14.3932 20Z" fill="white"/>
</svg>
