<svg width="22" height="20" viewBox="0 0 22 20" fill="none" xmlns="http://www.w3.org/2000/svg">
<g clip-path="url(#clip0_70_226)">
<path d="M9.26752 12.2536C9.81033 12.5853 10.4408 12.7606 11.0909 12.7606C11.7409 12.7606 12.3714 12.5853 12.9143 12.2536L21.8547 6.78977C21.9043 6.75945 21.9527 6.72785 22 6.69535V15.6484C22 16.6748 21.0913 17.4895 19.9915 17.4895H2.19037C1.07057 17.4895 0.181862 16.6565 0.181862 15.6484V6.69531C0.229292 6.72789 0.2777 6.75957 0.327431 6.78992L9.26752 12.2536Z" fill="white"/>
<path d="M21.1456 5.81463L12.2051 11.2785C11.8667 11.4853 11.4788 11.5887 11.091 11.5887C10.703 11.5887 10.3151 11.4853 9.97669 11.2785L1.03622 5.81463C0.501207 5.48787 0.181818 4.941 0.181818 4.35076C0.181818 3.33588 1.08254 2.51025 2.18965 2.51025H19.9922C21.0993 2.51029 22 3.33592 22 4.35174C22 4.941 21.6806 5.48787 21.1456 5.81463Z" fill="white"/>
</g>
<defs>
<clipPath id="clip0_70_226">
<rect width="21.8182" height="20" fill="white" transform="matrix(-1 0 0 1 22 0)"/>
</clipPath>
</defs>
</svg>
