<svg width="104" height="109" viewBox="0 0 104 109" fill="none" xmlns="http://www.w3.org/2000/svg">
<path d="M2.31 104.233L4.14272 105.319C5.59545 106.316 5.20223 107.94 3.92887 107.94C1.81044 107.94 1.13207 105.969 0.870501 105.286H0.66814V107.437C0.66814 107.437 1.62015 108.13 3.92887 108.13C5.84495 108.13 6.40431 107.212 6.40431 107.212C7.29767 105.991 6.64288 104.781 5.07173 103.808L3.23901 102.665C1.692 101.713 2.15593 100.234 3.44137 100.234C5.34537 100.234 6.07145 101.869 6.29738 102.464H6.49974V100.582C6.49974 100.582 5.47645 100.044 3.44137 100.044C1.56093 100.044 0.977432 100.896 0.977432 100.896C-0.0102133 102.116 0.620427 103.236 2.31 104.233Z" fill="#5A2B3F"/>
<path d="M46.8972 84.975C47.4099 87.9624 49.7877 89.3847 51.5652 90.5776C48.5333 86.1376 52.0763 81.1652 54.0837 77.6595C55.2306 75.6562 56.7368 73.1535 56.2533 70.3409C55.7434 67.3724 53.3404 65.916 51.5853 64.7383C54.6172 69.1783 51.0742 74.1501 49.0668 77.6557C47.9291 79.6439 46.4177 82.1807 46.8972 84.975Z" fill="#5A2B3F"/>
<path d="M46.3258 87.9673C43.2939 83.5273 46.8368 78.5549 48.8443 75.0497C49.9912 73.0464 51.4974 70.5438 51.0139 67.7311C50.504 64.7626 48.101 63.3062 46.3459 62.1284C49.3778 66.5684 45.8348 71.5403 43.8273 75.046C42.6891 77.0336 41.1777 79.5704 41.6572 82.3646C42.1705 85.352 44.5482 86.7744 46.3258 87.9673Z" fill="#5A2B3F"/>
<path d="M48.5636 26.1631C45.5317 21.7231 49.0747 16.7513 51.0822 13.245C52.2204 11.2574 53.7318 8.72066 53.2518 5.92639C52.739 2.93898 50.3613 1.51664 48.5837 0.32373C51.6157 4.76373 48.0727 9.73611 46.0652 13.2418C44.9183 15.2451 43.4121 17.7478 43.8956 20.5604C44.4055 23.5289 46.8085 24.9853 48.5636 26.1631Z" fill="#5A2B3F"/>
<path d="M51.3054 15.8525C50.1585 17.8559 48.6523 20.3586 49.1358 23.1713C49.6457 26.1397 52.0487 27.5961 53.8039 28.7739C50.7719 24.3339 54.3149 19.3621 56.3224 15.8564C57.4607 13.8687 58.972 11.3319 58.4926 8.53766C57.9798 5.55024 55.6021 4.12797 53.8246 2.93506C56.8559 7.37452 53.3129 12.3469 51.3054 15.8525Z" fill="#5A2B3F"/>
<path d="M85.0366 76.3686C79.5568 75.2465 78.326 69.3729 77.1113 65.5583C76.4174 63.3786 75.6016 60.607 73.1463 58.9391C70.5553 57.1792 67.762 57.7489 65.6355 58.0838C71.1158 59.2059 72.3461 65.0795 73.5608 68.8941C74.2495 71.057 75.0865 73.8567 77.5258 75.5133C80.1334 77.2845 82.8831 76.7083 85.0366 76.3686Z" fill="#5A2B3F"/>
<path d="M67.8948 70.5352C68.5835 72.6976 69.4205 75.4978 71.8597 77.1544C74.4668 78.9256 77.217 78.3489 79.3705 78.0097C73.8908 76.8877 72.66 71.014 71.4453 67.1994C70.7514 65.0197 69.9356 62.2482 67.4803 60.5803C64.8893 58.8204 62.096 59.39 59.9695 59.7249C65.4492 60.8469 66.6801 66.7201 67.8948 70.5352Z" fill="#5A2B3F"/>
<path d="M23.0385 25.3436C23.7324 27.5233 24.5481 30.2949 27.0035 31.9628C29.5944 33.7226 32.3878 33.1529 34.5143 32.8181C29.0339 31.696 27.8037 25.8224 26.589 22.0078C25.9003 19.8449 25.0632 17.0452 22.624 15.3887C20.0169 13.6174 17.2667 14.1941 15.1138 14.5333C20.593 15.6553 21.8238 21.529 23.0385 25.3436Z" fill="#5A2B3F"/>
<path d="M28.705 23.703C29.3989 25.8826 30.2146 28.6543 32.67 30.3222C35.2609 32.082 38.0543 31.5123 40.1808 31.1774C34.7004 30.0554 33.4702 24.1818 32.2555 20.3672C31.5668 18.2043 30.7292 15.4045 28.2905 13.748C25.6829 11.9768 22.9332 12.5535 20.7803 12.8927C26.2595 14.0142 27.4903 19.8878 28.705 23.703Z" fill="#5A2B3F"/>
<path d="M76.5238 39.6356C73.3694 40.1154 71.8218 42.3768 70.5703 44.0285C75.2884 41.1753 80.5715 44.5094 84.2973 46.3986C86.4094 47.4698 89.105 48.8921 92.0743 48.4409C95.2488 47.9583 96.7601 45.7208 98.0278 44.048C93.3097 46.9012 88.0266 43.567 84.3008 41.6779C82.172 40.598 79.5126 39.1811 76.5238 39.6356Z" fill="#5A2B3F"/>
<path d="M95.2534 48.9788C90.5353 51.832 85.2516 48.4978 81.5263 46.6086C79.3976 45.5293 76.7382 44.1119 73.7494 44.5669C70.595 45.0467 69.0474 47.3081 67.7959 48.9598C72.5139 46.1066 77.7971 49.4407 81.5229 51.3299C83.635 52.4011 86.3306 53.8234 89.2999 53.3717C92.4749 52.8891 93.9857 50.6515 95.2534 48.9788Z" fill="#5A2B3F"/>
<path d="M15.849 49.2241C17.9778 50.3034 20.6372 51.7208 23.626 51.2658C26.7803 50.7859 28.3279 48.5246 29.5794 46.8729C24.8614 49.7261 19.5782 46.3919 15.853 44.5028C13.7409 43.4316 11.0453 42.0093 8.07602 42.4611C4.90152 42.9436 3.39017 45.1812 2.12256 46.854C6.84003 44.0007 12.1238 47.3349 15.849 49.2241Z" fill="#5A2B3F"/>
<path d="M18.6228 44.2934C20.7515 45.3727 23.4109 46.7901 26.3997 46.3351C29.5541 45.8553 31.1017 43.5939 32.3532 41.9422C27.6352 44.7955 22.3514 41.4613 18.6262 39.5721C16.5141 38.5009 13.8185 37.0787 10.8492 37.5304C7.67473 38.013 6.16336 40.2505 4.89575 41.9233C9.6138 39.0695 14.8975 42.4043 18.6228 44.2934Z" fill="#5A2B3F"/>
<path d="M74.9858 23.3488C77.2842 22.7007 80.2592 21.9124 82.0195 19.6175C83.9016 17.1635 83.2888 14.5759 82.9284 12.5493C81.7361 17.7061 75.4946 18.8644 71.4411 20.0076C69.1249 20.6606 66.1798 21.4282 64.4074 23.7388C62.5373 26.1771 63.1427 28.8059 63.4985 30.8071C64.6908 25.6497 70.9323 24.4919 74.9858 23.3488Z" fill="#5A2B3F"/>
<path d="M73.1847 25.34C70.8686 25.993 67.9234 26.7607 66.1511 29.0714C64.281 31.5097 64.8863 34.1383 65.2422 36.1395C66.4345 30.9827 72.676 29.8244 76.7295 28.6813C79.0272 28.0331 82.0028 27.2449 83.7631 24.95C85.6453 22.496 85.0325 19.9084 84.672 17.8818C83.4797 23.0392 77.2382 24.1969 73.1847 25.34Z" fill="#5A2B3F"/>
<path d="M25.1639 67.553C22.8661 68.2011 19.8905 68.9893 18.1302 71.2842C16.2481 73.7382 16.8609 76.3258 17.2214 78.3524C18.4137 73.1956 24.6551 72.0373 28.7086 70.8941C31.0248 70.2412 33.9699 69.4735 35.7423 67.1629C37.6124 64.7246 37.007 62.0959 36.6512 60.0947C35.4589 65.2516 29.2174 66.4098 25.1639 67.553Z" fill="#5A2B3F"/>
<path d="M23.4203 62.2205C21.1225 62.8686 18.1469 63.6568 16.3866 65.9517C14.5044 68.4057 15.1173 70.9934 15.4777 73.02C16.67 67.8631 22.9115 66.7048 26.965 65.5617C29.2812 64.9087 32.2263 64.141 33.9986 61.8304C35.8687 59.3921 35.2634 56.7634 34.9075 54.7622C33.7152 59.9196 27.4737 61.0773 23.4203 62.2205Z" fill="#5A2B3F"/>
<path d="M9.63623 100.145V100.335C10.1594 100.335 10.4928 100.928 10.4928 101.623V106.495C10.4928 107.257 10.2071 107.839 9.70809 107.839V108.03H13.6236V107.839C13.112 107.839 12.2186 107.76 12.2186 106.495V104.67H12.6469C15.016 104.67 16.694 104.277 16.694 102.407C16.694 100.537 15.016 100.145 12.6469 100.145H9.63623V100.145ZM14.7417 102.407C14.7417 104.39 13.8133 104.48 12.6469 104.48H12.2186V100.335H12.6469C13.8133 100.335 14.7417 100.414 14.7417 102.407Z" fill="#5A2B3F"/>
<path d="M22.3848 107.839V108.03H25.7886V107.839C25.4794 107.817 25.1936 107.918 24.7889 107.022C24.7889 107.022 24.682 106.731 21.7662 100.145H21.5638L19.5052 105.252C18.3388 107.906 18.041 107.818 17.7317 107.839V108.03H20.6596V107.839C18.7791 107.929 19.5173 105.823 19.5173 105.823H22.3376L22.6946 106.641C22.6941 106.641 23.3132 107.839 22.3848 107.839ZM19.5523 105.633L20.8498 102.362L22.2663 105.633H19.5523Z" fill="#5A2B3F"/>
<path d="M39.5808 100.234C41.4848 100.234 42.2109 101.869 42.4368 102.464H42.6391V100.582C42.6391 100.582 41.6159 100.044 39.5808 100.044C37.7003 100.044 37.1168 100.896 37.1168 100.896C36.1292 102.116 36.7598 103.237 38.4494 104.234L40.2821 105.32C41.7349 106.317 41.3416 107.941 40.0683 107.941C37.9498 107.941 37.2715 105.97 37.0099 105.287H36.8076V107.437C36.8076 107.437 37.7596 108.131 40.0683 108.131C41.9844 108.131 42.5443 107.213 42.5443 107.213C43.4371 105.991 42.7823 104.782 41.2111 103.808L39.3784 102.666C37.8314 101.713 38.2953 100.234 39.5808 100.234Z" fill="#5A2B3F"/>
<path d="M51.2144 108.13C52.2624 108.13 54.1543 107.739 54.1543 105.342V102.015C54.1543 102.015 54.1302 100.324 55.9278 100.335V100.145H52.3331V100.335C53.9755 100.324 53.952 102.015 53.952 102.015V105.342C53.952 106.752 52.8925 107.458 51.9882 107.458C50.8574 107.458 49.9888 106.675 49.9888 105.353V101.321C49.9888 100.515 50.5843 100.335 51.096 100.335V100.145H47.3115V100.335C47.8347 100.335 48.2635 100.637 48.2635 101.321V105.274C48.263 107.101 49.5961 108.13 51.2144 108.13Z" fill="#5A2B3F"/>
<path d="M61.2192 101.131L61.6832 101.679V105.173C61.6832 105.173 61.6952 107.839 59.8982 107.839V108.03H63.5159V107.839C61.874 107.839 61.8855 105.173 61.8855 105.173V101.88L67.0865 108.03H67.7171V102.99C67.7171 102.99 67.6935 100.324 69.4906 100.335V100.145H65.8844V100.335C67.5263 100.324 67.5148 102.99 67.5148 102.99V105.711L62.7185 100.145H59.8027V100.336C60.112 100.357 60.4575 100.234 61.2192 101.131Z" fill="#5A2B3F"/>
<path d="M77.0795 107.94C74.9611 107.94 74.2827 105.969 74.0211 105.286H73.8188V107.437C73.8188 107.437 74.7708 108.13 77.0795 108.13C78.9956 108.13 79.5555 107.212 79.5555 107.212C80.4483 105.991 79.7935 104.781 78.2224 103.808L76.3896 102.665C74.8426 101.713 75.3066 100.234 76.592 100.234C78.496 100.234 79.2221 101.869 79.448 102.464H79.6504V100.582C79.6504 100.582 78.6271 100.044 76.592 100.044C74.7116 100.044 74.1281 100.896 74.1281 100.896C73.1404 102.116 73.7711 103.237 75.4606 104.234L77.2934 105.32C78.7461 106.316 78.3529 107.94 77.0795 107.94Z" fill="#5A2B3F"/>
<path d="M91.2015 105.588H90.9992C90.499 107.839 87.3452 107.839 87.3452 107.839H86.917V104.144H87.3452C87.3452 104.144 89.1544 104.144 89.2734 105.308H89.4757V102.787H89.2734C89.1544 103.953 87.3452 103.953 87.3452 103.953H86.917V100.334H87.3452C87.3452 100.334 90.5709 100.334 90.844 102.273H91.0463V100.145H84.5007V100.335C85.0239 100.335 85.1912 100.996 85.1912 101.69V106.495C85.1912 107.257 85.0003 107.839 84.5007 107.839V108.029H91.2015V105.588Z" fill="#5A2B3F"/>
<path d="M100.752 100.335C100.752 100.335 103.288 100.391 103.383 102.396H103.585V100.145H95.7539V102.396H95.9563C96.0517 100.391 98.5748 100.335 98.5748 100.335H98.8008V106.675C98.8008 107.437 98.2891 107.839 97.789 107.839V108.03H101.538V107.839C101.038 107.839 100.527 107.437 100.527 106.675V100.335H100.752Z" fill="#5A2B3F"/>
</svg>
