<svg width="69" height="71" viewBox="0 0 69 71" fill="none" xmlns="http://www.w3.org/2000/svg">
<path d="M34.5167 17.308C24.7212 17.308 16.82 25.4238 16.82 35.4855C16.82 45.5472 24.7212 53.663 34.5167 53.663C44.3122 53.663 52.2134 45.5472 52.2134 35.4855C52.2134 25.4238 44.3122 17.308 34.5167 17.308ZM34.5167 47.3033C28.1866 47.3033 23.0116 42.0035 23.0116 35.4855C23.0116 28.9675 28.1712 23.6677 34.5167 23.6677C40.8622 23.6677 46.0218 28.9675 46.0218 35.4855C46.0218 42.0035 40.8468 47.3033 34.5167 47.3033ZM57.0649 16.5644C57.0649 18.9216 55.2167 20.8043 52.9372 20.8043C50.6424 20.8043 48.8096 18.9058 48.8096 16.5644C48.8096 14.223 50.6578 12.3246 52.9372 12.3246C55.2167 12.3246 57.0649 14.223 57.0649 16.5644ZM68.7857 20.8675C68.5238 15.188 67.2609 10.1572 63.2102 6.01226C59.175 1.86733 54.2772 0.570068 48.748 0.285303C43.0493 -0.0469238 25.9687 -0.0469238 20.27 0.285303C14.7562 0.554248 9.85844 1.85151 5.80777 5.99644C1.7571 10.1414 0.509556 15.1722 0.232324 20.8517C-0.0911133 26.7052 -0.0911133 44.25 0.232324 50.1035C0.494155 55.783 1.7571 60.8138 5.80777 64.9587C9.85844 69.1037 14.7408 70.4009 20.27 70.6857C25.9687 71.0179 43.0493 71.0179 48.748 70.6857C54.2772 70.4167 59.175 69.1195 63.2102 64.9587C67.2455 60.8138 68.5084 55.783 68.7857 50.1035C69.1091 44.25 69.1091 26.721 68.7857 20.8675ZM61.4236 56.3841C60.2223 59.4849 57.8966 61.8738 54.8625 63.1236C50.3189 64.9746 39.5377 64.5474 34.5167 64.5474C29.4957 64.5474 18.6991 64.9587 14.1709 63.1236C11.1522 61.8896 8.82652 59.5007 7.60978 56.3841C5.80777 51.7171 6.22362 40.6429 6.22362 35.4855C6.22362 30.3281 5.82317 19.238 7.60978 14.5869C8.81112 11.4861 11.1368 9.09722 14.1709 7.84741C18.7145 5.99644 29.4957 6.42358 34.5167 6.42358C39.5377 6.42358 50.3343 6.01226 54.8625 7.84741C57.8812 9.0814 60.2069 11.4703 61.4236 14.5869C63.2256 19.2539 62.8098 30.3281 62.8098 35.4855C62.8098 40.6429 63.2256 51.733 61.4236 56.3841Z" fill="white"/>
</svg>
