<svg width="98" height="108" viewBox="0 0 98 108" fill="none" xmlns="http://www.w3.org/2000/svg">
<path d="M9.87793 87.9662L9.84054 87.4618C9.8258 87.2467 9.68152 87.1392 9.40875 87.1392C9.33451 87.1392 9.1681 87.1441 8.90955 87.1535C7.60417 87.2145 6.3683 87.2447 5.20194 87.2447L3.39263 87.2234L1.87398 87.2095C1.51644 87.2095 1.24104 87.2026 1.04726 87.1887C0.928255 87.1793 0.843475 87.1743 0.793977 87.1743C0.605463 87.1743 0.5012 87.2655 0.48119 87.4474L0.42906 87.875L0.339543 88.4984L0.265296 89.108C0.220537 89.3414 0.195789 89.5237 0.19105 89.654C0.181045 89.7992 0.257923 89.8716 0.421687 89.8716C0.535954 89.8716 0.620208 89.7755 0.674972 89.5832L0.734474 89.3864C0.883495 88.8755 1.00145 88.5559 1.08833 88.4266C1.17522 88.2978 1.35004 88.1818 1.61333 88.0787C1.97562 87.9429 2.65332 87.8746 3.64591 87.8746C4.0677 87.8746 4.27885 88.0589 4.27885 88.4281V94.6496L4.28622 94.9787C4.28622 95.3944 4.18091 95.7225 3.96975 95.9628C3.7586 96.2037 3.46003 96.3354 3.07299 96.3587C2.92397 96.3686 2.82708 96.3885 2.78232 96.4192C2.73756 96.4499 2.71282 96.5178 2.70808 96.6219C2.70334 96.7453 2.77759 96.8067 2.93135 96.8067C2.99559 96.8067 3.11512 96.7973 3.28889 96.779L4.93392 96.6883C5.16245 96.6739 5.42047 96.667 5.70798 96.667C5.83225 96.667 5.93125 96.6695 6.00602 96.6739L6.93648 96.7299L7.49518 96.7507C7.5847 96.7557 7.6463 96.7576 7.68106 96.7576C7.83482 96.7576 7.91222 96.7031 7.91222 96.5936C7.91222 96.442 7.8227 96.3587 7.64419 96.3444C7.02863 96.3072 6.59947 96.1234 6.35619 95.7943C6.11291 95.4653 5.99128 94.9058 5.99128 94.1164V88.8409C5.99128 88.4063 6.08448 88.1342 6.27036 88.0242C6.45677 87.9147 6.927 87.8597 7.68106 87.8597C8.24186 87.8597 8.66996 87.9558 8.96537 88.1481C9.26078 88.3404 9.46035 88.655 9.56462 89.0911C9.60937 89.2695 9.68888 89.3587 9.80262 89.3587C9.9369 89.3587 10.0038 89.2819 10.0038 89.1273C10.0038 88.9776 9.9864 88.7794 9.95165 88.5321C9.90794 88.2348 9.88267 88.046 9.87793 87.9662Z" fill="#5A2B3F"/>
<path d="M23.6304 95.8855C23.583 95.8855 23.5303 95.8904 23.4672 95.9053C23.3671 95.9251 23.2618 95.9301 23.1512 95.9301C22.8721 95.9301 22.6299 95.8508 22.4245 95.6823C22.2192 95.5138 21.9822 95.2115 21.7189 94.7754L20.9501 93.497L20.2919 92.3919C20.2024 92.2383 20.1339 92.1293 20.0865 92.0599C20.0444 91.9955 20.0181 91.941 20.0128 91.8914C20.0076 91.8369 20.0549 91.7923 20.155 91.7526C20.6394 91.5594 21.0186 91.272 21.2924 90.8904C21.5662 90.5138 21.7031 90.0926 21.7031 89.6268C21.7031 88.8934 21.3925 88.2838 20.7764 87.8032C20.155 87.3175 19.3704 87.0747 18.4278 87.0747C18.1119 87.0747 17.5327 87.1044 16.6954 87.1689C15.9793 87.2184 15.3737 87.2432 14.8682 87.2432C14.4153 87.2432 13.9941 87.2283 13.6097 87.1887C13.4886 87.1738 13.399 87.1689 13.3464 87.1689C13.2042 87.1689 13.1357 87.2333 13.1357 87.3671C13.1357 87.5009 13.2358 87.5802 13.4412 87.6099C13.9941 87.6743 14.389 87.8626 14.6312 88.1748C14.7787 88.3681 14.8576 88.7397 14.8576 89.2997V94.3592L14.8471 94.6317V95.2958C14.8471 95.6377 14.7839 95.8904 14.6523 96.054C14.5259 96.2224 14.2942 96.3513 13.9519 96.4504C13.8572 96.4801 13.8045 96.5445 13.8045 96.6486C13.8045 96.7775 13.894 96.8419 14.073 96.8419C14.1257 96.8419 14.2258 96.8369 14.3627 96.822L14.8629 96.7824L15.4895 96.7279C15.7476 96.713 16.0424 96.7031 16.3742 96.7031C16.7691 96.7031 17.1851 96.718 17.6116 96.7527C17.7591 96.7676 17.8591 96.7725 17.917 96.7725C18.0856 96.7725 18.1698 96.7081 18.1698 96.5743C18.1698 96.4405 18.0645 96.3662 17.8539 96.3463C17.3431 96.2968 17.0008 96.1184 16.827 95.8012C16.6533 95.489 16.569 94.8894 16.569 94.0024V92.5852C16.569 92.3968 16.6059 92.2829 16.6796 92.2482L17.0166 92.1887H17.4747C17.8697 92.1887 18.1487 92.2581 18.3225 92.3968C18.4963 92.5356 18.7174 92.8626 18.986 93.383C19.6758 94.6962 20.234 95.5881 20.6658 96.0589C21.0976 96.5297 21.5662 96.7675 22.077 96.7675C22.3929 96.7675 22.751 96.6784 23.1565 96.5049C23.5619 96.3364 23.7673 96.1778 23.7673 96.044C23.7673 95.935 23.7199 95.8855 23.6304 95.8855ZM18.9228 91.599C18.7122 91.6288 18.1593 91.6436 17.2746 91.6436C16.9692 91.6436 16.7744 91.604 16.6901 91.5247C16.6111 91.4454 16.569 91.2571 16.569 90.9598V88.5316C16.569 88.1798 16.6322 87.937 16.7586 87.8032C16.885 87.6694 17.1167 87.6 17.4537 87.6C18.2119 87.6 18.8333 87.8329 19.323 88.2938C19.8127 88.7497 20.0602 89.3344 20.0602 90.038C20.0602 90.5831 19.8759 91.0093 19.5126 91.3166C19.3283 91.4751 19.1334 91.5693 18.9228 91.599Z" fill="#5A2B3F"/>
<path d="M36.026 88.2393C35.0729 87.387 33.8197 86.9658 32.2715 86.9658C31.4396 86.9658 30.6497 87.1046 29.9125 87.387C29.17 87.6695 28.5539 88.061 28.0747 88.5615C27.6587 88.9876 27.327 89.5129 27.0848 90.1422C26.8425 90.7716 26.7214 91.4059 26.7214 92.0402C26.7214 93.5219 27.2006 94.7062 28.1643 95.5932C29.1279 96.4753 30.4127 96.9213 32.0188 96.9213C33.7038 96.9213 35.0255 96.4109 35.9839 95.3901C36.9633 94.3494 37.453 93.0759 37.453 91.5793C37.453 90.1968 36.9791 89.0867 36.026 88.2393ZM34.8044 95.2563C34.1935 96.0144 33.3826 96.396 32.3611 96.396C31.2342 96.396 30.3179 95.9352 29.6176 95.0184C28.912 94.1017 28.5592 92.9074 28.5592 91.4406C28.5592 90.1968 28.8383 89.2304 29.4017 88.5317C29.9599 87.838 30.7392 87.4911 31.7397 87.4911C32.6717 87.4911 33.4774 87.7934 34.1619 88.4029C34.6359 88.8092 35.015 89.3643 35.2941 90.063C35.5784 90.7617 35.7206 91.4802 35.7206 92.2136C35.7206 93.4822 35.4152 94.4981 34.8044 95.2563Z" fill="#5A2B3F"/>
<path d="M49.2525 87.9097C48.6074 87.3542 47.5822 87.0762 46.1778 87.0762C45.9493 87.0762 45.6965 87.0856 45.4185 87.1044L44.5923 87.1535C44.369 87.1674 44.0857 87.1743 43.7434 87.1743C43.0236 87.1743 42.3907 87.1584 41.8451 87.1252C41.6666 87.1114 41.5497 87.1044 41.495 87.1044C41.2817 87.1044 41.1748 87.1733 41.1748 87.3111C41.1748 87.4344 41.2664 87.5078 41.4502 87.5316C41.9615 87.5831 42.3248 87.7323 42.5413 87.98C42.7572 88.2273 42.8651 88.6193 42.8651 89.1559V94.5465C42.8651 95.2372 42.8019 95.711 42.6755 95.9677C42.5486 96.2239 42.2943 96.3944 41.9125 96.4786C41.7835 96.5068 41.7214 96.5762 41.7267 96.6857C41.7314 96.8002 41.8135 96.8567 41.972 96.8567C42.0863 96.8567 42.2427 96.8443 42.4412 96.82C43.0515 96.7511 43.5328 96.7169 43.8856 96.7169L44.1763 96.71L45.33 96.7516C45.4985 96.7516 45.6623 96.7586 45.8213 96.7724C45.9203 96.7819 45.9924 96.7868 46.0372 96.7868C46.2257 96.7868 46.32 96.7224 46.32 96.5945C46.32 96.4662 46.2531 96.3973 46.1188 96.3874L45.7987 96.3592C45.2579 96.3126 44.913 96.1193 44.7639 95.7789C44.6397 95.4944 44.5781 94.9087 44.5781 94.0227V88.7134C44.5781 88.2749 44.6713 87.9805 44.8577 87.8284C45.0441 87.6773 45.4085 87.6014 45.9503 87.6014C46.6517 87.6014 47.2246 87.8254 47.6696 88.2729C48.1145 88.7204 48.3373 89.2987 48.3373 90.0073C48.3373 90.5762 48.1446 91.044 47.7591 91.4097C47.3736 91.7759 46.8824 91.9593 46.2852 91.9593C46.0314 91.9593 45.7676 91.9221 45.4938 91.8473C45.4443 91.8329 45.4043 91.8264 45.3742 91.8264C45.25 91.8264 45.1873 91.8894 45.1873 92.0157C45.1873 92.1416 45.3674 92.2516 45.7271 92.3448C46.0867 92.4384 46.5053 92.485 46.9814 92.485C47.8597 92.485 48.6016 92.2189 49.2072 91.6862C49.8127 91.1535 50.1155 90.5018 50.1155 89.7313C50.1161 89.0167 49.828 88.4097 49.2525 87.9097Z" fill="#5A2B3F"/>
<path d="M58.4218 96.3666C58.0495 96.3666 57.7478 96.2709 57.5172 96.0797C57.286 95.8884 57.1412 95.6129 57.0817 95.2536L57.0222 94.5539V88.5965C57.0222 88.1951 57.0727 87.929 57.1749 87.7981C57.2765 87.6678 57.5061 87.5742 57.8636 87.5182C57.9632 87.5038 58.0248 87.4825 58.05 87.4537C58.0748 87.4255 58.0869 87.368 58.0869 87.2828C58.0869 87.1688 58.0053 87.1118 57.8415 87.1118C57.5688 87.1118 57.1765 87.1297 56.6652 87.1648L56.1217 87.205C55.71 87.2362 55.3645 87.2516 55.087 87.2516C54.6652 87.2516 54.3645 87.2332 54.186 87.1956C54.0075 87.1629 53.8733 87.1445 53.7837 87.1396C53.6647 87.1351 53.6052 87.199 53.6052 87.3318C53.6052 87.4176 53.6416 87.4775 53.7132 87.5132C53.7853 87.5489 53.9475 87.5855 54.2008 87.6232C54.6226 87.6837 54.9132 87.8051 55.0723 87.9869C55.2308 88.1688 55.3103 88.4741 55.3103 88.9032V94.4781L55.3029 95.1005C55.3029 95.5063 55.2445 95.7967 55.1281 95.9716C55.0112 96.1465 54.7742 96.2942 54.4172 96.4156L54.2013 96.5802L54.2161 96.6371C54.2461 96.7368 54.315 96.7868 54.4246 96.7868C54.5336 96.7868 54.7126 96.7645 54.9606 96.7199C55.2487 96.6713 55.6404 96.6466 56.137 96.6466C56.5388 96.6466 57.0627 96.6807 57.7078 96.7496C57.9658 96.7744 58.1643 96.7868 58.3033 96.7868C58.6261 96.7868 58.7873 96.7179 58.7873 96.5802C58.7862 96.4379 58.6646 96.3666 58.4218 96.3666Z" fill="#5A2B3F"/>
<path d="M71.6184 94.2085C71.5536 94.2134 71.4867 94.2531 71.4172 94.3274L70.9328 94.8229C70.61 95.1579 70.1677 95.4384 69.6063 95.6639C69.045 95.8899 68.5132 96.0023 68.0113 96.0023C67.162 96.0023 66.3769 95.6669 65.6565 94.9954C64.6971 94.095 64.2179 92.8899 64.2179 91.3789C64.2179 90.2223 64.5112 89.2818 65.0973 88.5568C65.6839 87.8313 66.4464 87.4691 67.3852 87.4691C68.4437 87.4691 69.4052 87.9071 70.2693 88.7833C70.4831 88.9978 70.7079 89.2877 70.9438 89.6534C71.1797 90.0191 71.3177 90.2907 71.3577 90.4676C71.3825 90.5796 71.4346 90.6356 71.5141 90.6356C71.6531 90.6356 71.7227 90.5469 71.7227 90.3695C71.7227 90.2481 71.7079 90.1103 71.6779 89.9562L71.611 89.6411L71.5515 89.1083V88.4711L71.5441 87.9597C71.5441 87.6564 71.4673 87.5043 71.3135 87.5043C71.2487 87.5043 71.2045 87.5236 71.1797 87.5603L71.0234 87.7778C70.9733 87.8526 70.8991 87.8898 70.8001 87.8898C70.7206 87.8898 70.6316 87.8615 70.5321 87.8056L70.0408 87.539C69.351 87.1653 68.5416 86.9785 67.6138 86.9785C66.3632 86.9785 65.2684 87.3571 64.3306 88.1138C63.7598 88.5761 63.3032 89.1762 62.961 89.9141C62.6187 90.652 62.447 91.4067 62.447 92.1772C62.447 93.5836 62.9025 94.7253 63.813 95.6029C64.7234 96.481 65.9087 96.9201 67.3679 96.9201C68.8765 96.9201 70.1445 96.374 71.1724 95.2808C71.5647 94.8606 71.7606 94.5544 71.7606 94.3631C71.76 94.2551 71.7126 94.204 71.6184 94.2085Z" fill="#5A2B3F"/>
<path d="M85.4346 96.4454C85.0713 96.3809 84.7764 96.262 84.5447 96.0786C84.3183 95.8953 84.1182 95.6228 83.9497 95.2561L80.5638 87.9369L80.3848 87.5652C80.1899 87.1737 80.053 86.9805 79.974 86.9805C79.9214 86.9805 79.8161 87.1539 79.6581 87.5107V87.4909L79.3 88.145L78.6049 89.483C78.5418 89.6118 78.4259 89.8546 78.2627 90.2015L76.2301 94.6119C75.9141 95.2907 75.6719 95.7367 75.5139 95.9498C75.3507 96.1629 75.1348 96.3066 74.8663 96.3859C74.7294 96.4354 74.6609 96.5048 74.6609 96.6039C74.6609 96.7179 74.7293 96.7724 74.8715 96.7724C74.9663 96.7724 75.2033 96.7526 75.5929 96.7179C76.1142 96.6684 76.4934 96.6485 76.7251 96.6485C76.9831 96.6485 77.278 96.6783 77.6044 96.7377C77.7729 96.7675 77.8993 96.7823 77.9888 96.7823C78.1574 96.7823 78.2469 96.7179 78.2574 96.594C78.2627 96.4801 78.1679 96.4107 77.9783 96.3859C77.1095 96.2967 76.6724 95.9548 76.6724 95.3651C76.6724 95.2065 76.704 95.0529 76.7725 94.8992L77.0042 94.3591C77.2358 93.8239 77.4465 93.5167 77.6308 93.4374L78.2943 93.3234H79.3053C80.2847 93.3234 80.8587 93.3482 81.0167 93.3829C81.1799 93.4275 81.3273 93.5811 81.459 93.8537C81.8908 94.7407 82.1067 95.3155 82.1067 95.5732C82.1067 95.7615 82.0277 95.9399 81.8697 96.1084C81.717 96.2769 81.5169 96.3908 81.2799 96.4553C81.1694 96.4899 81.1167 96.5395 81.1167 96.6089C81.1167 96.7427 81.1852 96.8071 81.3221 96.8071C81.38 96.8071 81.4432 96.7972 81.5169 96.7774C81.8276 96.703 82.4068 96.6683 83.2651 96.6683C84.1129 96.6683 84.729 96.708 85.1134 96.7873C85.2345 96.812 85.3293 96.822 85.3978 96.8269C85.5083 96.8319 85.5663 96.7724 85.5663 96.6436C85.5663 96.5246 85.5242 96.4602 85.4346 96.4454ZM80.6375 92.6594H78.4364C78.0836 92.6594 77.9046 92.5801 77.9046 92.4215C77.9046 92.372 77.9204 92.3125 77.9573 92.2431L78.0362 92.0648L78.9051 90.2015L79.0473 89.9091C79.2052 89.5771 79.3158 89.4136 79.3737 89.4136C79.4738 89.4136 79.637 89.6663 79.8687 90.1817L80.8429 92.3175L80.8797 92.3968C80.9061 92.4513 80.9166 92.4909 80.9166 92.5157C80.9166 92.6098 80.8218 92.6594 80.6375 92.6594Z" fill="#5A2B3F"/>
<path d="M96.9903 94.2789C96.9351 94.2789 96.7992 94.4206 96.5823 94.7045C95.8798 95.6352 94.6876 96.1005 93.0052 96.1005C92.644 96.1005 92.4018 96.0697 92.278 96.0093C92.0553 95.9023 91.9442 95.4126 91.9442 94.5405V88.4691C91.9442 87.8532 92.1948 87.5295 92.6961 87.4968C92.9094 87.4874 93.0163 87.4255 93.0163 87.311C93.0163 87.1782 92.8673 87.1113 92.5687 87.1113C92.1659 87.1113 91.7709 87.1302 91.3829 87.1668C90.861 87.2228 90.4803 87.2511 90.2423 87.2511C90.0927 87.2511 89.8668 87.2372 89.5635 87.2094L89.2428 87.1886C89.1186 87.1742 89.0217 87.1648 88.9522 87.1604C88.8579 87.146 88.7858 87.1391 88.7358 87.1391C88.5867 87.1391 88.512 87.2104 88.512 87.3527C88.512 87.4671 88.6062 87.538 88.7947 87.5662L89.2413 87.6361C89.9016 87.7342 90.2318 88.1559 90.2318 88.9012V94.7447C90.2318 95.2898 90.1707 95.6827 90.0496 95.9225C89.9279 96.1624 89.7083 96.3245 89.3908 96.4082C89.2618 96.4414 89.197 96.5009 89.197 96.5866C89.197 96.7105 89.2687 96.7724 89.4129 96.7724C89.4824 96.7724 89.6188 96.7615 89.8221 96.7392C90.4872 96.6683 91.1074 96.6327 91.6835 96.6327C92.0305 96.6327 92.3412 96.6396 92.614 96.6535L93.4254 96.6887C93.9315 96.7169 94.2295 96.7328 94.319 96.7377C94.6613 96.761 94.8972 96.7724 95.0262 96.7724C95.6518 96.7724 96.1452 96.5673 96.508 96.156C96.9198 95.6887 97.1257 95.1584 97.1257 94.5658C97.1262 94.3745 97.0809 94.2789 96.9903 94.2789Z" fill="#5A2B3F"/>
<path d="M22.8092 104.875C22.5775 104.612 22.2616 104.449 21.8666 104.384C21.7403 104.364 21.6771 104.33 21.6823 104.275C21.6823 104.245 21.7455 104.201 21.8614 104.156C22.3722 103.948 22.6249 103.581 22.6249 103.061C22.6249 102.605 22.4195 102.239 22.0141 101.966C21.6033 101.693 21.061 101.555 20.387 101.555C20.1289 101.555 19.813 101.57 19.4391 101.604C18.8283 101.654 18.4123 101.679 18.1859 101.679C18.1016 101.679 17.9121 101.674 17.6172 101.664L17.2591 101.644L17.138 101.639C17.0485 101.639 17.0063 101.684 17.0063 101.773C17.0063 101.852 17.0432 101.892 17.1117 101.902L17.3328 101.926C17.8541 101.981 18.1122 102.313 18.1122 102.917V106.634C18.1122 107.189 17.9226 107.501 17.5435 107.561C17.4592 107.576 17.4171 107.615 17.4171 107.68C17.4171 107.759 17.4645 107.799 17.5593 107.799C17.654 107.799 17.7541 107.794 17.8647 107.784C18.2122 107.749 18.6282 107.729 19.1021 107.729L19.8446 107.744L20.8135 107.769C21.5296 107.769 22.1036 107.595 22.5196 107.253C22.9409 106.907 23.1515 106.441 23.1515 105.846C23.1515 105.46 23.0356 105.137 22.8092 104.875ZM19.2074 102.526C19.2074 102.273 19.2548 102.1 19.3549 102.016C19.4549 101.926 19.6445 101.882 19.9341 101.882C20.4238 101.882 20.824 102.02 21.1242 102.293C21.4243 102.566 21.577 102.927 21.577 103.368C21.577 103.918 21.3032 104.226 20.7608 104.29L20.4659 104.305L19.8077 104.29C19.5866 104.29 19.4286 104.255 19.3391 104.186C19.2548 104.112 19.2074 103.993 19.2074 103.814V102.526ZM21.735 106.991C21.4822 107.298 21.0241 107.452 20.3448 107.452C19.655 107.452 19.2917 107.234 19.2548 106.807L19.2232 106.426L19.2074 106.257V105.514C19.2074 105.133 19.239 104.895 19.297 104.791C19.3601 104.687 19.5023 104.637 19.734 104.637C20.2185 104.637 20.6555 104.682 21.0399 104.776C21.7034 104.934 22.0404 105.365 22.0404 106.069C22.0404 106.426 21.9351 106.733 21.735 106.991Z" fill="#5A2B3F"/>
<path d="M33.8791 106.209C33.8633 106.212 33.8444 106.231 33.8217 106.267C33.4247 107.006 32.5811 107.375 31.2915 107.375C31.1388 107.375 31.0261 107.351 30.9534 107.303C30.8803 107.255 30.8165 107.164 30.7628 107.03C30.6928 106.845 30.658 106.542 30.658 106.122V105.718C30.658 105.396 30.6675 105.16 30.6865 105.011C30.7054 104.88 30.7428 104.793 30.7986 104.749C30.8539 104.706 30.9582 104.684 31.1109 104.684H31.4347C31.7617 104.684 31.985 104.695 32.104 104.716C32.223 104.736 32.3241 104.783 32.4068 104.855C32.5558 104.986 32.6511 105.179 32.6927 105.433C32.7117 105.553 32.7612 105.61 32.8407 105.604C32.8786 105.601 32.9044 105.59 32.9171 105.572C32.9265 105.558 32.9313 105.529 32.9313 105.487L32.9265 105.258C32.9265 105.087 32.917 104.886 32.8981 104.656C32.8697 104.302 32.8554 104.077 32.8554 103.982C32.8554 103.928 32.8586 103.862 32.8649 103.784C32.8744 103.676 32.8791 103.61 32.8791 103.586C32.8791 103.502 32.8444 103.462 32.7743 103.465C32.7075 103.468 32.6601 103.496 32.6316 103.55L32.5221 103.77C32.3505 104.096 32.1077 104.258 31.7928 104.258H31.3879L31.1783 104.263L31.0356 104.267C30.8703 104.267 30.7665 104.23 30.7233 104.155C30.6807 104.08 30.6591 103.904 30.6591 103.626V102.653L30.6638 102.469C30.6638 102.215 30.7449 102.064 30.9066 102.016L31.2304 101.98H31.8118C32.3262 101.98 32.699 102.047 32.9292 102.18C33.1593 102.314 33.2746 102.529 33.2746 102.827C33.2746 102.962 33.3046 103.028 33.3652 103.025C33.4889 103.019 33.551 102.903 33.551 102.675C33.551 102.562 33.5384 102.375 33.5131 102.115C33.4942 101.939 33.4847 101.816 33.4847 101.747C33.4847 101.649 33.4389 101.599 33.3467 101.599C33.3278 101.599 33.3051 101.601 33.2799 101.604C33.0387 101.63 32.3984 101.644 31.3594 101.644L29.5533 101.626L29.072 101.608C28.9735 101.608 28.8956 101.607 28.8387 101.604C28.7655 101.598 28.7181 101.595 28.696 101.595C28.5912 101.595 28.5386 101.63 28.5386 101.7C28.5386 101.776 28.5818 101.82 28.6671 101.833C29.0325 101.881 29.2731 101.964 29.389 102.083C29.5048 102.203 29.5628 102.43 29.5628 102.764V106.314C29.5628 106.586 29.5454 106.801 29.5101 106.959C29.4722 107.147 29.4206 107.278 29.3553 107.351C29.29 107.424 29.1673 107.493 28.9862 107.559C28.913 107.587 28.8782 107.628 28.8814 107.683C28.8877 107.75 28.9288 107.784 29.0051 107.784C29.0625 107.784 29.1562 107.779 29.2863 107.77C29.7597 107.743 30.1125 107.73 30.3442 107.73C30.6907 107.73 30.965 107.739 31.1683 107.757L31.7212 107.806C31.9692 107.83 32.1946 107.842 32.3978 107.842C32.7438 107.842 33.0218 107.792 33.2319 107.691C33.4415 107.591 33.6163 107.424 33.7559 107.19C33.9244 106.914 34.0081 106.629 34.0081 106.336C34.0081 106.297 33.9944 106.265 33.9676 106.239C33.9402 106.213 33.9107 106.203 33.8791 106.209Z" fill="#5A2B3F"/>
<path d="M68.9254 102.141L68.9017 101.818C68.8923 101.681 68.8001 101.612 68.6253 101.612C68.5779 101.612 68.471 101.615 68.3062 101.621C67.4705 101.66 66.6796 101.68 65.9334 101.68L64.7755 101.666L63.8034 101.657C63.5749 101.657 63.3985 101.653 63.2747 101.644C63.1984 101.638 63.1447 101.635 63.1126 101.635C62.992 101.635 62.9251 101.694 62.9125 101.81L62.8793 102.084L62.8219 102.482L62.7745 102.872C62.7461 103.022 62.7303 103.139 62.7271 103.222C62.7208 103.315 62.7698 103.362 62.8745 103.362C62.9477 103.362 63.0014 103.3 63.0367 103.177L63.0746 103.051C63.17 102.724 63.2453 102.52 63.3011 102.437C63.3569 102.354 63.4685 102.28 63.637 102.214C63.8687 102.127 64.3026 102.084 64.9377 102.084C65.2078 102.084 65.3426 102.202 65.3426 102.438V106.421L65.3473 106.631C65.3473 106.897 65.2799 107.107 65.1446 107.261C65.0098 107.415 64.8181 107.499 64.5706 107.514C64.4753 107.52 64.4132 107.534 64.3848 107.553C64.3563 107.573 64.3405 107.616 64.3374 107.683C64.3342 107.761 64.3821 107.801 64.4801 107.801C64.5212 107.801 64.5975 107.795 64.7086 107.783L65.7618 107.725C65.9076 107.716 66.073 107.711 66.2573 107.711C66.3368 107.711 66.4 107.713 66.4479 107.716L67.0434 107.752L67.401 107.765C67.4584 107.768 67.4979 107.769 67.52 107.769C67.6185 107.769 67.668 107.734 67.668 107.664C67.668 107.567 67.6106 107.514 67.4963 107.505C67.1024 107.481 66.8275 107.364 66.6717 107.153C66.5158 106.942 66.4384 106.584 66.4384 106.079V102.703C66.4384 102.425 66.4979 102.251 66.6169 102.18C66.7359 102.11 67.0371 102.075 67.52 102.075C67.8791 102.075 68.1529 102.136 68.342 102.259C68.531 102.382 68.659 102.584 68.7253 102.863C68.7538 102.977 68.8048 103.034 68.878 103.034C68.9639 103.034 69.0065 102.984 69.0065 102.886C69.0065 102.79 68.9955 102.663 68.9733 102.505C68.9444 102.313 68.9286 102.192 68.9254 102.141Z" fill="#5A2B3F"/>
<path d="M45.7941 107.565C45.5572 107.53 45.3729 107.451 45.2254 107.332C45.078 107.218 44.9516 107.04 44.841 106.807L42.6768 102.124L42.561 101.886C42.4346 101.633 42.3503 101.509 42.2977 101.509C42.2661 101.509 42.1976 101.623 42.0923 101.851V101.836L41.8659 102.258L41.4236 103.11C41.3814 103.194 41.3077 103.348 41.2024 103.571L39.9018 106.395C39.6964 106.831 39.5437 107.114 39.4436 107.253C39.3383 107.386 39.2014 107.481 39.0276 107.53C38.9434 107.56 38.896 107.609 38.896 107.669C38.896 107.743 38.9434 107.778 39.0329 107.778C39.0908 107.778 39.2435 107.763 39.491 107.743C39.828 107.713 40.0703 107.699 40.2177 107.699C40.3862 107.699 40.5705 107.718 40.7811 107.753C40.8865 107.773 40.9707 107.783 41.0286 107.783C41.1339 107.783 41.1919 107.743 41.1971 107.664C41.2024 107.59 41.1445 107.545 41.0234 107.53C40.4652 107.471 40.1808 107.253 40.1808 106.876C40.1808 106.777 40.2072 106.678 40.2493 106.579L40.3967 106.232C40.5442 105.89 40.6811 105.692 40.7969 105.642L41.2235 105.573H41.8712C42.4978 105.573 42.8611 105.583 42.9664 105.607C43.0665 105.637 43.1613 105.736 43.2508 105.91C43.5246 106.475 43.6615 106.841 43.6615 107.01C43.6615 107.129 43.6141 107.243 43.5141 107.352C43.414 107.461 43.2876 107.535 43.1349 107.575C43.0612 107.595 43.0296 107.629 43.0296 107.674C43.0296 107.758 43.0717 107.798 43.1613 107.798C43.1981 107.798 43.2402 107.793 43.2876 107.783C43.4825 107.733 43.8563 107.708 44.404 107.708C44.9464 107.708 45.3413 107.733 45.5835 107.788C45.6678 107.803 45.7257 107.813 45.7678 107.813C45.8415 107.818 45.8784 107.778 45.8784 107.694C45.8784 107.619 45.8468 107.575 45.7941 107.565ZM42.7189 105.147H41.313C41.0866 105.147 40.9707 105.092 40.9707 104.993C40.9707 104.958 40.9812 104.924 41.0076 104.879L41.0602 104.765L41.6131 103.571L41.7026 103.382C41.808 103.169 41.8764 103.065 41.9133 103.065C41.9765 103.065 42.0818 103.229 42.2292 103.556L42.8558 104.929L42.8769 104.973C42.8927 105.013 42.9032 105.038 42.9032 105.052C42.9032 105.112 42.8401 105.147 42.7189 105.147Z" fill="#5A2B3F"/>
<path d="M76.7087 54.3124C77.9409 54.1296 78.914 53.4883 79.2668 52.7272L83.3883 52.2088L83.3778 52.1479C85.4235 52.91 87.6051 53.1959 90.0195 53.1003C87.6409 53.0597 85.5273 52.6424 83.5647 51.7827L82.8512 48.0909C83.5121 47.5408 83.8607 46.4724 83.6664 45.3129C83.4663 44.1181 82.7501 43.1766 81.9092 42.8718C81.2083 43.405 80.835 44.5086 81.0356 45.7033C81.2299 46.8629 81.9108 47.7787 82.7201 48.1102L83.2193 51.6241C82.1093 51.1033 81.0456 50.4392 80.0088 49.6132C78.865 48.5255 77.8551 47.3515 76.9141 46.1295L76.2158 42.5165C76.8772 41.9665 77.2253 40.8981 77.031 39.7385C76.8309 38.5437 76.1147 37.6022 75.2738 37.2975C74.5729 37.8312 74.1996 38.9342 74.4002 40.129C74.5945 41.2886 75.2754 42.2043 76.0847 42.5358L76.5228 45.6186C75.5081 44.2583 74.5729 42.8416 73.6451 41.4095C73.0506 40.5006 72.4482 39.6027 71.8242 38.7221L71.1433 35.2013C71.8047 34.6512 72.1528 33.5829 71.9585 32.4233C71.7584 31.2285 71.0422 30.287 70.2013 29.9822C69.5004 30.5155 69.1271 31.619 69.3277 32.8138C69.522 33.9733 70.2029 34.8891 71.0122 35.2206L71.4314 38.1696C70.175 36.4456 68.8064 34.8084 67.1735 33.3445C67.0339 33.2419 66.8939 33.1453 66.7533 33.0482L65.7554 29.2815C66.3773 28.6928 66.6522 27.6051 66.3789 26.4599C66.0977 25.2796 65.3189 24.3836 64.4585 24.1304C63.7955 24.7052 63.4985 25.8286 63.7802 27.009C64.0535 28.1542 64.796 29.0268 65.6259 29.3088L66.3647 32.7875C63.5291 30.9426 60.4954 30.2295 56.9742 30.3395C56.9758 30.3371 56.9785 30.3351 56.98 30.3326C56.5604 29.5819 55.4835 29.0224 54.1992 28.9743C52.9149 28.9262 51.7938 29.4035 51.3125 30.121C51.7322 30.8718 52.809 31.4312 54.0933 31.4793C55.3666 31.5269 56.4777 31.0571 56.9658 30.3504C60.3891 30.4362 63.2647 31.3118 65.9366 33.1899L62.4664 34.0041C61.8409 33.4188 60.685 33.1602 59.4681 33.4174C58.2138 33.682 57.2612 34.4149 56.9927 35.2246C57.6035 35.8485 58.7972 36.128 60.0515 35.8629C61.2685 35.6057 62.1958 34.9074 62.4959 34.126L66.2593 33.4184C66.44 33.5512 66.6195 33.6884 66.798 33.8311C68.4852 35.4367 69.8901 37.2241 71.1934 39.0888L67.5389 39.7147C66.9544 39.0928 65.8191 38.7647 64.5869 38.9476C63.3174 39.1359 62.3169 39.8099 61.993 40.6012C62.5596 41.2608 63.7323 41.6121 65.0019 41.4233C66.2341 41.2405 67.2072 40.5992 67.5595 39.8381L71.3792 39.3574C71.9874 40.238 72.5772 41.1325 73.1617 42.0348C74.1411 43.5339 75.1369 45.0076 76.2322 46.409L72.6109 47.0289C72.0264 46.4065 70.8911 46.079 69.6589 46.2618C68.3893 46.4501 67.3889 47.1241 67.065 47.9155C67.6321 48.575 68.8043 48.9264 70.0739 48.7376C71.306 48.5547 72.2792 47.914 72.632 47.1523L76.4444 46.6726C77.4085 47.8833 78.449 49.0389 79.6328 50.1003C80.7038 50.8897 81.7996 51.5052 82.9355 51.9715L79.2473 52.6028C78.6628 51.9809 77.5275 51.6528 76.2953 51.8352C75.0258 52.0235 74.0253 52.6974 73.7014 53.4888C74.267 54.1494 75.4391 54.5007 76.7087 54.3124Z" fill="#5A2B3F"/>
<path d="M28.6172 47.1528L32.4296 46.6732C33.3938 47.8838 34.4343 49.0394 35.6181 50.1008C36.6886 50.8902 37.7849 51.5057 38.9207 51.972L35.2331 52.6033C34.6486 51.9814 33.5133 51.6533 32.2811 51.8357C31.0116 52.024 30.0111 52.698 29.6872 53.4894C30.2544 54.1489 31.4265 54.5002 32.6961 54.3119C33.9283 54.1291 34.9014 53.4879 35.2537 52.7267L39.3752 52.2084L39.3646 52.1474C41.4104 52.9096 43.592 53.1955 46.0063 53.0999C43.6273 53.0592 41.5141 52.642 39.5516 51.7822L38.8381 48.0904C39.4994 47.5403 39.8475 46.4719 39.6532 45.3124C39.4531 44.1176 38.737 43.1761 37.896 42.8713C37.1952 43.4045 36.8218 44.5081 37.0224 45.7029C37.2167 46.8624 37.8981 47.7782 38.7069 48.1097L39.2061 51.6236C38.0961 51.1028 37.0324 50.4388 35.9956 49.6127C34.8524 48.525 33.8419 47.351 32.9009 46.129L32.2027 42.516C32.8635 41.966 33.2121 40.8976 33.0178 39.738C32.8177 38.5433 32.1016 37.6017 31.2606 37.297C30.5598 37.8307 30.1864 38.9337 30.3865 40.1285C30.5808 41.2881 31.2617 42.2039 32.071 42.5354L32.5091 45.6181C31.4944 44.2579 30.5592 42.8411 29.6314 41.4095C29.0369 40.5007 28.435 39.6027 27.8105 38.7222L27.1297 35.2013C27.791 34.6513 28.1391 33.5829 27.9453 32.4233C27.7452 31.2286 27.0291 30.287 26.1881 29.9823C25.4873 30.5155 25.1139 31.619 25.314 32.8138C25.5083 33.9734 26.1892 34.8891 26.9985 35.2206L27.4177 38.1691C26.1613 36.4451 24.7927 34.8079 23.1598 33.3445C23.0203 33.242 22.8802 33.1453 22.7396 33.0482L21.7417 29.2816C22.3636 28.6928 22.6385 27.6051 22.3652 26.4599C22.0835 25.2796 21.3052 24.3836 20.4448 24.1304C19.7818 24.7052 19.4848 25.8286 19.7666 27.009C20.0398 28.1542 20.7818 29.0269 21.6122 29.3093L22.351 32.788C19.5154 30.9431 16.4818 30.23 12.9606 30.34C12.9621 30.3376 12.9648 30.3356 12.9664 30.3331C12.5472 29.5824 11.4698 29.0229 10.1855 28.9748C8.90119 28.9267 7.78012 29.404 7.29883 30.1215C7.71798 30.8723 8.79535 31.4317 10.0797 31.4798C11.3529 31.5274 12.464 31.0576 12.9521 30.3509C16.3754 30.4367 19.2516 31.3123 21.9229 33.1899L18.4527 34.0041C17.8272 33.4189 16.6713 33.1602 15.4544 33.4174C14.2001 33.682 13.2476 34.4149 12.979 35.2246C13.5898 35.8485 14.7836 36.128 16.0379 35.8629C17.2548 35.6057 18.1821 34.9075 18.4822 34.126L22.2457 33.4184C22.4263 33.5512 22.6058 33.6884 22.7844 33.8312C24.4715 35.4367 25.8764 37.2241 27.1797 39.0889L23.5253 39.7147C22.9408 39.0928 21.8055 38.7648 20.5733 38.9476C19.3037 39.1359 18.3032 39.8099 17.9794 40.6013C18.5459 41.2608 19.7186 41.6122 20.9882 41.4234C22.2204 41.2405 23.1935 40.5993 23.5458 39.8381L27.3656 39.3574C27.9738 40.238 28.5635 41.1325 29.148 42.0349C30.1275 43.5339 31.1232 45.0076 32.2185 46.409L28.5972 47.029C28.0127 46.4066 26.8774 46.079 25.6452 46.2618C24.3757 46.4501 23.3752 47.1241 23.0513 47.9155C23.6179 48.5751 24.7906 48.9264 26.0602 48.7376C27.2918 48.5552 28.265 47.914 28.6172 47.1528Z" fill="#5A2B3F"/>
<path d="M35.6548 25.0177C36.8717 24.7605 37.799 24.0622 38.0992 23.2813L41.7957 22.586C39.8353 25.2545 39.0781 28.1094 39.1945 31.423C39.1918 31.4216 39.1897 31.4191 39.1866 31.4176C38.3888 31.8126 37.7943 32.8259 37.7432 34.0346C37.6921 35.2432 38.1992 36.2982 38.9617 36.7511C39.7595 36.3562 40.354 35.3428 40.4051 34.1342C40.4556 32.9359 39.9564 31.8903 39.2055 31.431C39.2966 28.2094 40.2271 25.5028 42.2223 22.9889L43.0874 26.2545C42.4655 26.8432 42.1907 27.931 42.464 29.0762C42.7457 30.2566 43.524 31.1525 44.3844 31.4057C45.0473 30.8309 45.3443 29.7075 45.0626 28.5271C44.7893 27.3819 44.0469 26.5093 43.217 26.2268L42.465 22.6851C42.6061 22.5152 42.752 22.3462 42.9037 22.1782C44.6098 20.5905 46.5091 19.2684 48.4906 18.0419L49.1557 21.481C48.4943 22.031 48.1462 23.0994 48.3405 24.259C48.5406 25.4537 49.2568 26.3953 50.0977 26.7C50.7986 26.1668 51.172 25.0632 50.9719 23.8685C50.7775 22.7089 50.0962 21.7932 49.2873 21.4616L48.7766 17.867C49.7123 17.2946 50.6627 16.7396 51.6216 16.1896C53.2145 15.2679 54.7806 14.3308 56.2697 13.3001L56.9285 16.7079C56.2676 17.2579 55.919 18.3263 56.1133 19.4859C56.3134 20.6807 57.0296 21.6222 57.8705 21.927C58.5714 21.3938 58.9447 20.2902 58.7441 19.0954C58.5498 17.9359 57.8689 17.0201 57.0596 16.6881L56.5499 13.1003C57.8363 12.193 59.0643 11.2138 60.1922 10.0998C61.031 9.09189 61.685 8.06067 62.1805 6.99228L62.8514 10.4626C62.1905 11.0126 61.8419 12.081 62.0363 13.2406C62.2364 14.4353 62.9525 15.3769 63.7934 15.6816C64.4943 15.1479 64.8676 14.0448 64.6675 12.8501C64.4732 11.6905 63.7924 10.7748 62.983 10.4428L62.4322 6.56412L62.3675 6.57404C63.1773 4.64885 63.4812 2.5958 63.3795 0.32373C63.3364 2.5621 62.893 4.55121 61.9794 6.3981L58.0564 7.06958C57.4719 6.44768 56.3366 6.11961 55.1044 6.30246C53.8348 6.49077 52.8343 7.16473 52.5105 7.95611C53.0771 8.61568 54.2498 8.96702 55.5194 8.77822C56.7515 8.59536 57.7247 7.95461 58.0769 7.19295L61.8109 6.72318C61.2575 7.76779 60.5518 8.76881 59.674 9.74453C58.5182 10.8209 57.2707 11.7713 55.9722 12.6568L52.1329 13.3139C51.5484 12.6915 50.4132 12.364 49.181 12.5463C47.9114 12.7346 46.9109 13.4086 46.5871 14.1999C47.1536 14.8595 48.3263 15.2109 49.5959 15.0221C50.8281 14.8392 51.8012 14.1985 52.1535 13.4368L55.4293 13.0245C53.9833 13.9794 52.4784 14.8595 50.9566 15.7332C49.9908 16.2926 49.0367 16.8595 48.101 17.4467L44.3596 18.0875C43.7751 17.4656 42.6398 17.1375 41.4077 17.3204C40.1381 17.5087 39.1376 18.1826 38.8137 18.974C39.3803 19.6336 40.553 19.9849 41.8226 19.7961C43.0548 19.6133 44.0279 18.9725 44.3802 18.2109L47.5138 17.8169C45.6819 18.9993 43.9421 20.2872 42.3871 21.8239C42.2781 21.9552 42.1754 22.087 42.0722 22.2188L38.0697 23.1579C37.4441 22.5727 36.2883 22.314 35.0714 22.5712C33.8171 22.8358 32.8645 23.5687 32.5959 24.3784C33.2068 25.0033 34.4005 25.2828 35.6548 25.0177Z" fill="#5A2B3F"/>
<path d="M63.7941 57.1006C64.495 56.5674 64.8683 55.4638 64.6682 54.269C64.4739 53.1095 63.7931 52.1937 62.9837 51.8617L62.4329 47.9831L62.3682 47.993C63.178 46.0678 63.4819 44.0147 63.3802 41.7427C63.3371 43.981 62.8937 45.9702 61.9801 47.817L58.0571 48.4885C57.4726 47.8666 56.3373 47.5386 55.1051 47.7214C53.8355 47.9097 52.835 48.5837 52.5112 49.3751C53.0778 50.0346 54.2505 50.386 55.52 50.1972C56.7522 50.0143 57.7253 49.3735 58.0776 48.6119L61.8116 48.1421C61.2581 49.1867 60.5525 50.1877 59.6747 51.1634C58.5189 52.2398 57.2714 53.1902 55.9734 54.0758L52.1342 54.7334C51.5497 54.111 50.4144 53.7834 49.1822 53.9658C47.9126 54.1541 46.9121 54.828 46.5883 55.6194C47.1549 56.2789 48.3276 56.6303 49.5971 56.4415C50.8293 56.2586 51.8024 55.6179 52.1547 54.8562L55.4305 54.4439C53.9846 55.3988 52.4796 56.2789 50.9578 57.1521C49.9921 57.7116 49.0374 58.2785 48.1022 58.8657L44.3609 59.5059C43.7764 58.884 42.6411 58.556 41.4089 58.7383C40.1393 58.9266 39.1388 59.6006 38.815 60.3925C39.3816 61.052 40.5543 61.4034 41.8238 61.2146C43.056 61.0317 44.0291 60.3905 44.3814 59.6293L47.515 59.2349C45.6831 60.4172 43.9433 61.7051 42.3883 63.2418C42.2793 63.3731 42.1766 63.5049 42.0734 63.6373L38.0709 64.5763C37.4453 63.9911 36.2895 63.7324 35.0726 63.9891C33.8183 64.2542 32.8657 64.9871 32.5972 65.7964C33.208 66.4203 34.4017 66.6997 35.656 66.4346C36.873 66.1774 37.8003 65.4787 38.1004 64.6977L41.797 64.0025C39.8365 66.671 39.0788 69.5258 39.1957 72.8395C39.193 72.838 39.1909 72.8355 39.1878 72.8341C38.39 73.2285 37.7955 74.2424 37.7444 75.451C37.6934 76.6597 38.2005 77.7147 38.9629 78.1676C39.7607 77.7731 40.3552 76.7593 40.4063 75.5506C40.4568 74.3524 39.9576 73.3068 39.2067 72.8479C39.2978 69.6264 40.2283 66.9198 42.2235 64.4059L43.0887 67.6715C42.4668 68.2602 42.1919 69.3479 42.4652 70.4931C42.7469 71.6735 43.5252 72.5694 44.3856 72.8227C45.0486 72.2478 45.3456 71.1244 45.0638 69.9441C44.7905 68.7989 44.0481 67.9262 43.2182 67.6437L42.4662 64.1021C42.6074 63.9321 42.7532 63.7631 42.9049 63.5952C44.611 62.0074 46.5103 60.6853 48.4918 59.4589L49.1569 62.8984C48.4955 63.4485 48.1475 64.5169 48.3418 65.6764C48.5419 66.8712 49.258 67.8127 50.099 68.1175C50.7998 67.5838 51.1732 66.4807 50.9731 65.2859C50.7788 64.1264 50.0974 63.2106 49.2886 62.8791L48.7778 59.2844C49.7135 58.7121 50.664 58.1566 51.6229 57.6065C53.2158 56.6848 54.7818 55.7477 56.2709 54.717L56.9297 58.1249C56.2688 58.6749 55.9202 59.7433 56.1145 60.9029C56.3146 62.0976 57.0308 63.0391 57.8717 63.3439C58.5726 62.8107 58.9459 61.7071 58.7453 60.5124C58.551 59.3528 57.8701 58.437 57.0608 58.1055L56.5511 54.5178C57.8375 53.6105 59.0655 52.6313 60.1934 51.5173C61.0322 50.5094 61.6862 49.4781 62.1818 48.4092L62.8526 51.8795C62.1918 52.4296 61.8432 53.498 62.0375 54.6575C62.237 55.8548 62.9527 56.7963 63.7941 57.1006Z" fill="#5A2B3F"/>
<path d="M57.4319 101.568C57.3846 101.568 57.3319 101.571 57.2745 101.577C57.1534 101.592 57.0133 101.605 56.8543 101.617L56.3867 101.635L55.8801 101.613C55.6827 101.604 55.5568 101.595 55.5031 101.586C55.4525 101.574 55.4157 101.57 55.3936 101.573C55.333 101.576 55.303 101.612 55.303 101.682C55.303 101.771 55.3651 101.815 55.4889 101.815C55.7716 101.815 55.9954 101.892 56.1608 102.046C56.3261 102.2 56.4183 102.416 56.4372 102.694L56.4609 103.613V103.976C56.4609 104.804 56.4078 105.44 56.3014 105.882C56.195 106.325 56.0149 106.661 55.7606 106.891C55.3825 107.232 54.887 107.402 54.2741 107.402C53.6738 107.402 53.1814 107.236 52.797 106.904C52.5432 106.686 52.3752 106.424 52.2941 106.117C52.2131 105.811 52.1725 105.296 52.1725 104.573L52.163 103.779L52.2394 102.649C52.2552 102.359 52.2968 102.164 52.3631 102.064C52.43 101.964 52.5601 101.896 52.7538 101.86C52.8492 101.841 52.9097 101.823 52.935 101.805C52.9603 101.787 52.9729 101.754 52.9729 101.705C52.9729 101.617 52.8902 101.573 52.7254 101.573C52.6591 101.573 52.5495 101.579 52.3974 101.591C52.0198 101.623 51.6759 101.64 51.3653 101.64C51.1462 101.64 50.8355 101.622 50.4327 101.586C50.3374 101.577 50.2726 101.573 50.2373 101.573C50.1299 101.573 50.0757 101.612 50.0757 101.692C50.0757 101.765 50.1378 101.81 50.2616 101.829C50.4553 101.855 50.6302 101.903 50.7855 101.972C50.9187 102.032 51.0072 102.104 51.0499 102.187C51.0925 102.271 51.1141 102.414 51.1141 102.617L51.1283 103.433L51.0762 105.167C51.0762 106.293 51.3795 107.052 51.9861 107.443C52.4342 107.73 53.0629 107.874 53.8733 107.874C55.0202 107.874 55.8333 107.526 56.313 106.83C56.5131 106.543 56.6584 106.135 56.749 105.606C56.8395 105.078 56.8848 104.382 56.8848 103.518L56.8943 102.967L56.8896 102.577C56.8896 102.117 57.0133 101.868 57.2613 101.829L57.4425 101.798C57.522 101.785 57.5615 101.749 57.5615 101.688C57.561 101.607 57.5183 101.568 57.4319 101.568Z" fill="#5A2B3F"/>
<path d="M80.2562 101.604C80.1067 101.604 79.9808 101.606 79.8792 101.612L79.478 101.635C79.3505 101.644 79.2342 101.648 79.1294 101.648C78.9351 101.648 78.776 101.641 78.6518 101.626L78.3369 101.586C78.2637 101.577 78.1826 101.572 78.0931 101.572C78.0104 101.572 77.9688 101.619 77.9688 101.714C77.9688 101.775 78.0199 101.811 78.1215 101.824C78.3216 101.841 78.4996 101.906 78.6549 102.016C78.8108 102.126 78.8882 102.244 78.8882 102.37C78.8882 102.519 78.7144 102.888 78.3664 103.48C78.1952 103.766 78.0894 103.948 78.0483 104.026C77.8835 104.33 77.7508 104.483 77.6497 104.483C77.5481 104.483 77.4428 104.379 77.3348 104.169C77.3001 104.098 77.2058 103.925 77.0536 103.65L76.6819 102.97C76.4496 102.546 76.3338 102.271 76.3338 102.146C76.3338 101.991 76.456 101.891 76.7008 101.846C76.8088 101.825 76.863 101.782 76.863 101.718C76.863 101.642 76.7961 101.604 76.6634 101.604C76.5965 101.604 76.4649 101.613 76.2685 101.631C76.0026 101.658 75.7403 101.671 75.4839 101.671C75.2048 101.671 74.8941 101.653 74.5513 101.617C74.3834 101.599 74.2596 101.59 74.1801 101.59C74.0916 101.59 74.0469 101.637 74.0469 101.731C74.0469 101.808 74.1058 101.85 74.2233 101.859C74.6108 101.895 74.9489 102.17 75.238 102.683L75.962 103.963C76.1621 104.322 76.3448 104.629 76.5102 104.885C76.6497 105.101 76.7198 105.308 76.7198 105.508V106.363C76.7198 106.763 76.6571 107.043 76.5318 107.205C76.4065 107.366 76.1658 107.473 75.8098 107.527C75.7209 107.539 75.6766 107.572 75.6766 107.627C75.6766 107.728 75.7129 107.778 75.7861 107.778C75.8467 107.778 75.9415 107.768 76.0716 107.747C76.2685 107.714 76.6634 107.697 77.2564 107.697C77.5038 107.697 77.6892 107.704 77.8129 107.716L78.4885 107.773C78.577 107.782 78.6597 107.787 78.736 107.787C78.8787 107.787 78.9498 107.743 78.9498 107.655C78.9498 107.576 78.8993 107.533 78.7976 107.527C78.2163 107.497 77.8988 107.314 77.8445 106.976L77.8208 106.671V105.35C77.8208 105.203 77.8282 105.102 77.8424 105.045C77.8567 104.988 77.8972 104.914 77.9641 104.821C78.3005 104.322 78.6707 103.707 79.0741 102.975C79.2995 102.566 79.4864 102.288 79.6338 102.142C79.7813 101.995 79.9745 101.895 80.2125 101.841C80.3268 101.817 80.3842 101.773 80.3842 101.709C80.3853 101.639 80.3426 101.604 80.2562 101.604Z" fill="#5A2B3F"/>
</svg>
