<svg width="94" height="116" viewBox="0 0 94 116" fill="none" xmlns="http://www.w3.org/2000/svg">
<path d="M19.1152 34.9329C20.461 35.5439 21.8657 36.0013 23.2987 36.3063C21.8662 36.6133 20.462 37.0735 19.1182 37.6869C17.2094 38.5595 15.4192 39.7411 13.834 41.2334C10.8248 44.0652 9.00216 47.5902 8.36705 51.2632C11.5715 53.4252 15.4983 54.6989 19.7417 54.6989C21.996 54.6989 24.1591 54.3399 26.1734 53.6792H26.1745C26.3475 53.6224 26.5199 53.5632 26.6914 53.5026C23.073 49.2858 23.3454 43.0937 27.5091 39.1754C28.4344 38.3046 29.4799 37.6143 30.5938 37.1055C31.2142 36.8224 31.8554 36.5946 32.5108 36.4228H32.5119C32.6848 36.3784 32.8599 36.3364 33.0349 36.2991C32.8599 36.2614 32.6858 36.2209 32.5124 36.1755C31.8564 36.0056 31.2137 35.7788 30.5923 35.4976C29.4707 34.9878 28.4197 34.2946 27.4888 33.4191C23.3297 29.505 23.0537 23.3215 26.6599 19.1058C26.4885 19.0456 26.3155 18.9864 26.142 18.9296H26.141C24.1357 18.2761 21.9828 17.9204 19.7407 17.9204C15.4851 17.9204 11.5472 19.1998 8.33813 21.3743C8.97882 25.0358 10.7999 28.5498 13.8005 31.3735C15.3938 32.872 17.1952 34.0593 19.1152 34.9329ZM26.3601 38.0936C22.1908 42.0172 21.3888 47.9587 24.1393 52.6585C22.7087 52.9984 21.2351 53.1703 19.7407 53.1703C16.3155 53.1703 13.0254 52.2709 10.1623 50.5609C10.8979 47.436 12.5511 44.6008 14.9814 42.3137C16.4038 40.9751 18.0342 39.8809 19.8264 39.0618C21.0439 38.5061 22.3329 38.0803 23.6584 37.7962L27.8251 36.904C27.3087 37.2644 26.8192 37.6616 26.3601 38.0936ZM19.7412 19.4476C21.225 19.4476 22.6885 19.617 24.1103 19.9522C21.3731 24.6491 22.1792 30.582 26.3409 34.4985C26.807 34.9372 27.3032 35.3391 27.8282 35.7039L23.6569 34.8159C22.3298 34.5333 21.0393 34.1099 19.8218 33.5571C18.018 32.7364 16.379 31.6385 14.9495 30.2922C12.5272 28.0127 10.876 25.1867 10.1364 22.0722C13.0035 20.3517 16.3034 19.4476 19.7412 19.4476Z" fill="#E24486"/>
<path d="M65.8739 33.4004C64.9486 34.2711 63.9042 34.9605 62.7892 35.4694C62.1677 35.7534 61.525 35.9811 60.8686 36.152C60.6961 36.1983 60.5221 36.2389 60.3481 36.2766C60.5232 36.3143 60.6971 36.3549 60.8706 36.4002C61.526 36.5702 62.1688 36.796 62.7907 37.0781C63.9123 37.588 64.9633 38.2807 65.8942 39.1566C70.0523 43.0697 70.3303 49.2528 66.7251 53.469C66.8966 53.5301 67.0685 53.5883 67.242 53.6451C69.2473 54.2987 71.4002 54.6543 73.6423 54.6543C77.8978 54.6543 81.8358 53.374 85.0449 51.2014C84.4042 47.5399 82.5831 44.0259 79.5825 41.2022C77.9887 39.7023 76.1893 38.5155 74.2683 37.6419C72.922 37.0299 71.5178 36.5726 70.0848 36.2685C71.5173 35.9615 72.9215 35.5013 74.2653 34.8869H74.2663C76.1757 34.0148 77.9643 32.8337 79.5496 31.3414C82.5587 28.5096 84.3808 24.9837 85.0175 21.3107C81.813 19.1477 77.8857 17.875 73.6418 17.875C71.3875 17.875 69.2244 18.234 67.2101 18.8947H67.209C67.0361 18.9515 66.8636 19.0107 66.6921 19.0723C70.31 23.289 70.0376 29.482 65.8739 33.4004ZM73.5606 39.0182C75.3615 39.8374 77.001 40.9353 78.433 42.283C80.8553 44.5625 82.5065 47.3881 83.2461 50.5025C80.3769 52.2221 77.0776 53.1267 73.6413 53.1267C72.1575 53.1267 70.694 52.9573 69.2737 52.6226C72.0094 47.9261 71.2028 41.9923 67.0417 38.0768C66.577 37.6395 66.0824 37.2385 65.5599 36.8752L69.7267 37.7598C71.0517 38.0405 72.3417 38.4644 73.5606 39.0182ZM73.6413 19.4036C77.0679 19.4036 80.3587 20.3025 83.2207 22.0129C82.4846 25.1388 80.8309 27.9745 78.4011 30.2611C77.0086 31.5715 75.4173 32.6475 73.6697 33.46L73.5556 33.5126C72.3396 34.0687 71.0506 34.4945 69.7241 34.7786L65.5569 35.6708C66.0738 35.3104 66.5633 34.9132 67.0224 34.4812C71.1922 30.5571 71.9947 24.6152 69.2427 19.9158C70.6732 19.5754 72.1469 19.4036 73.6413 19.4036Z" fill="#E24486"/>
<path d="M28.2457 55.6243V55.6253C27.5513 57.5124 27.1733 59.5384 27.1733 61.6484C27.1733 65.6532 28.5328 69.3591 30.8435 72.379C34.7343 71.776 38.4683 70.0622 41.4689 67.2385C43.0627 65.7396 44.3238 64.0444 45.2521 62.2375C45.9014 60.971 46.3874 59.6492 46.7116 58.3006C47.0378 59.6487 47.5268 60.97 48.1786 62.2346C49.1059 64.031 50.3614 65.7157 51.9472 67.2075C54.9563 70.0393 58.7021 71.7541 62.605 72.3522C64.9025 69.3366 66.2559 65.6412 66.2559 61.6479C66.2559 59.5264 65.8744 57.4909 65.1724 55.5952V55.5943C65.112 55.4315 65.0491 55.2692 64.9842 55.1078C62.9008 56.6913 60.3639 57.4828 57.8265 57.4828C54.9071 57.4828 51.9877 56.4345 49.7598 54.3383C48.8345 53.4676 48.101 52.4837 47.5602 51.4354C47.2594 50.8515 47.0175 50.2481 46.8348 49.6313V49.6304C46.7877 49.4671 46.743 49.3024 46.7035 49.1377C46.6639 49.3024 46.6203 49.4661 46.5721 49.6294C46.3915 50.2462 46.1505 50.8515 45.8517 51.4358C45.31 52.4913 44.5739 53.4804 43.6431 54.3564C41.4156 56.4526 38.4962 57.5009 35.5769 57.5009C33.0456 57.5009 30.5138 56.7128 28.4334 55.1365C28.369 55.2988 28.3061 55.4616 28.2457 55.6243ZM48.6113 55.4195C51.0726 57.7358 54.3456 59.0118 57.826 59.0118C60.021 59.0118 62.1799 58.4853 64.0868 57.5048C64.449 58.8524 64.6316 60.2406 64.6316 61.6489C64.6316 64.8717 63.6759 67.9685 61.8588 70.6628C58.5382 69.9706 55.5255 68.4148 53.0951 66.1277C51.6727 64.7891 50.51 63.2548 49.6396 61.5682C49.0491 60.4225 48.5966 59.2095 48.2948 57.9621L47.3467 54.0409C47.7297 54.5268 48.1517 54.9875 48.6113 55.4195ZM29.3348 57.5324C31.2371 58.5073 33.389 59.03 35.5764 59.03C39.0568 59.03 42.3292 57.7544 44.7905 55.4382C45.2567 54.9995 45.6838 54.5321 46.0714 54.0385L45.1279 57.964C44.8275 59.2128 44.3771 60.4273 43.7902 61.573C42.9182 63.2706 41.7514 64.813 40.3209 66.1582C37.8987 68.4377 34.8956 69.9916 31.5861 70.6876C29.7584 67.989 28.7971 64.8841 28.7971 61.6489C28.7971 60.2506 28.9777 58.8715 29.3348 57.5324Z" fill="#E24486"/>
<path d="M28.2105 16.9791C28.2709 17.1418 28.3338 17.3041 28.3992 17.4655C30.4826 15.882 33.019 15.0901 35.5569 15.0905C38.4763 15.0905 41.3962 16.1389 43.6236 18.235C44.5489 19.1058 45.2814 20.0887 45.8221 21.138C46.124 21.7228 46.3659 22.3276 46.5475 22.9454C46.5968 23.1077 46.6399 23.2714 46.6799 23.4352C46.72 23.2705 46.7632 23.1067 46.8113 22.9435C46.9919 22.3262 47.2319 21.7214 47.5317 21.1366C48.0734 20.0811 48.8095 19.0919 49.7403 18.216C51.9678 16.1198 54.8877 15.0715 57.8076 15.0715C60.3379 15.0715 62.8687 15.8591 64.949 17.4345C65.0139 17.2731 65.0758 17.1113 65.1362 16.948C65.8306 15.0609 66.2085 13.0349 66.2085 10.9249C66.2085 6.92015 64.848 3.21425 62.5394 0.194336C58.6486 0.797269 54.9145 2.51107 51.914 5.33478C50.3201 6.83471 49.0586 8.52796 48.1307 10.3358C47.4804 11.6033 46.9945 12.9242 46.6713 14.2728C46.3452 12.9247 45.8561 11.6033 45.2033 10.3387V10.3377C44.276 8.54039 43.0215 6.85763 41.4357 5.36581C38.4266 2.53399 34.6798 0.818729 30.7769 0.220093C28.4784 3.23571 27.126 6.9321 27.126 10.9254C27.126 13.0469 27.5074 15.0829 28.2095 16.9781V16.9791H28.2105ZM48.2555 14.6089C48.5543 13.362 49.0048 12.1479 49.5932 11.0008C50.4632 9.30562 51.6305 7.76321 53.0625 6.41556C55.4847 4.13607 58.4873 2.5822 61.7968 1.88618C63.624 4.58625 64.5853 7.69112 64.5853 10.9249C64.5853 12.3227 64.4047 13.7018 64.0481 15.0404C62.1463 14.0661 59.9944 13.5438 57.8081 13.5434C54.3271 13.5434 51.0542 14.8189 48.5929 17.1356C48.1282 17.5729 47.7021 18.0384 47.3161 18.5301L48.2555 14.6089ZM31.5231 1.91051C34.8447 2.60319 37.8579 4.15946 40.2877 6.44659C41.6807 7.757 42.8236 9.25503 43.6875 10.8996L43.7428 11.0065C44.3338 12.1508 44.7863 13.3639 45.0881 14.6117L46.0362 18.5334C45.6532 18.0469 45.2312 17.5863 44.7721 17.1543C42.3108 14.838 39.0383 13.5624 35.5569 13.5619C33.3614 13.5619 31.2025 14.0885 29.2956 15.0695C28.9334 13.7219 28.7508 12.3332 28.7508 10.9249C28.7508 7.70067 29.706 4.60389 31.5231 1.91051Z" fill="#E24486"/>
<path d="M30.8276 49.9402C31.7965 49.5931 32.7192 49.1568 33.5826 48.6436C33.0378 49.458 32.5762 50.3269 32.2099 51.2391C33.8596 52.4889 35.8669 53.1133 37.8742 53.1133C40.1899 53.1133 42.5056 52.2817 44.2724 50.619C45.0105 49.9244 45.5939 49.1406 46.0235 48.3032C46.2615 47.8392 46.4527 47.3604 46.5957 46.8716V46.8706C46.127 45.1545 45.3205 43.5037 44.1776 42.0104C42.0972 42.3312 40.1554 43.043 38.4418 44.0622C39.5223 42.4472 40.2746 40.6198 40.6124 38.6616C39.0236 37.5879 37.268 36.8327 35.4443 36.3936H35.4438C34.9239 36.5296 34.4156 36.7101 33.9235 36.9349C33.0398 37.3388 32.2104 37.8858 31.4769 38.5766C28.174 41.6848 27.9579 46.5961 30.8276 49.9402ZM39.3093 45.3545C40.5906 44.5926 41.973 44.0417 43.4309 43.7108C44.069 44.6904 44.5631 45.7407 44.9055 46.8477C44.8081 47.1169 44.693 47.3819 44.5616 47.6387C44.2009 48.3414 43.7175 48.9807 43.1245 49.5387C41.7219 50.8587 39.8576 51.5852 37.8747 51.5852C36.5943 51.5852 35.3352 51.2711 34.2309 50.6868C34.4495 50.2653 34.692 49.8547 34.9573 49.458L36.6425 46.9403L39.3093 45.3545ZM34.6317 38.3102C34.9041 38.1861 35.1851 38.0773 35.4717 37.9851C36.6491 38.3064 37.7661 38.7695 38.8071 39.3676C38.4575 40.741 37.8747 42.0424 37.0676 43.2483L35.3834 45.765L32.7152 47.3513C32.2931 47.6024 31.8563 47.8316 31.4079 48.0383C29.7816 45.3487 30.2234 41.9164 32.6239 39.6569C33.2143 39.1022 33.89 38.6492 34.6317 38.3102Z" fill="#E24486"/>
<path d="M55.5073 19.46C53.1921 19.46 50.8764 20.2916 49.109 21.9548C48.3714 22.6489 47.7886 23.4342 47.3579 24.2696C47.121 24.7341 46.9297 25.2119 46.7847 25.7013V25.7037C47.2564 27.4179 48.062 29.0682 49.2034 30.5615C51.2837 30.2407 53.2261 29.5303 54.9407 28.5106C54.4014 29.3188 53.9418 30.1791 53.5766 31.0804C53.2114 31.9865 52.9379 32.9331 52.769 33.9122C54.3558 34.9844 56.1119 35.7401 57.9356 36.1793C58.4556 36.0428 58.9659 35.8628 59.4595 35.6375C60.3421 35.2346 61.172 34.6884 61.905 33.9962C65.2089 30.889 65.4245 25.9767 62.5534 22.6326C61.586 22.9787 60.6642 23.4156 59.7983 23.9302C60.3447 23.1153 60.8048 22.2479 61.172 21.3351C59.5219 20.0849 57.5151 19.46 55.5073 19.46ZM54.0737 27.2184C52.7939 27.9793 51.4116 28.5297 49.9516 28.861C49.315 27.8834 48.8209 26.8336 48.4764 25.7266C48.5743 25.4564 48.6895 25.1914 48.8199 24.9365C49.1836 24.2309 49.6675 23.5912 50.2585 23.0351C51.6611 21.7151 53.5259 20.9881 55.5083 20.9881C56.7892 20.9881 58.0477 21.3027 59.1521 21.8875C58.9329 22.3099 58.6904 22.72 58.4256 23.1148L56.7339 25.6368L54.0737 27.2184ZM60.6653 25.2229C61.0894 24.9709 61.5266 24.7412 61.973 24.535C63.6009 27.2246 63.159 30.6574 60.7551 32.9178C60.1697 33.4707 59.495 33.9232 58.7508 34.2631C58.4799 34.3867 58.1979 34.4956 57.9082 34.5887C56.7314 34.2674 55.6153 33.8048 54.5759 33.2076C54.7134 32.671 54.8869 32.1416 55.0949 31.6256C55.417 30.8302 55.8284 30.0559 56.3169 29.3241L57.9945 26.8107L60.6653 25.2229Z" fill="#E24486"/>
<path d="M61.9207 38.5629C61.1826 37.8683 60.3487 37.3188 59.4594 36.9145C58.9664 36.6906 58.4565 36.5116 57.9366 36.3765C56.1139 36.8176 54.3603 37.5766 52.7735 38.6522C53.1149 40.6099 53.8708 42.4359 54.9538 44.0494C53.2377 43.0331 51.2958 42.3246 49.215 42.0067C48.0741 43.5009 47.2706 45.1531 46.8049 46.8688C46.949 47.3582 47.1407 47.8379 47.3802 48.301C47.8093 49.134 48.3902 49.9136 49.1247 50.6048C50.891 52.2671 53.2068 53.0982 55.5225 53.0982C57.5348 53.0982 59.5477 52.4704 61.1999 51.2149C60.8311 50.3031 60.3674 49.4348 59.8216 48.6213C60.687 49.1345 61.6103 49.5685 62.5797 49.9141C65.4392 46.5705 65.219 41.6668 61.9207 38.5629ZM55.5225 51.5706C53.5395 51.5706 51.6753 50.844 50.2732 49.5245C49.6832 48.9693 49.2018 48.3335 48.8406 47.6327C48.7087 47.3778 48.5931 47.1133 48.4957 46.8436C48.8366 45.7365 49.3286 44.6858 49.9648 43.7057C51.4232 44.0346 52.8065 44.5832 54.0894 45.3427L56.7643 46.9266L58.4484 49.4376C58.7148 49.8343 58.9582 50.2454 59.1774 50.6664C58.0705 51.2546 56.8074 51.5706 55.5225 51.5706ZM60.687 47.329L58.0106 45.7427L56.327 43.2336C55.5179 42.0282 54.9325 40.7269 54.5805 39.3549C55.6209 38.7543 56.7369 38.2898 57.9122 37.9671C58.1999 38.0588 58.4814 38.1671 58.7528 38.2903C59.4995 38.6297 60.1788 39.0846 60.7723 39.6437C63.1681 41.8983 63.6125 45.3264 61.9948 48.0141C61.5464 47.8078 61.1091 47.5792 60.687 47.329Z" fill="#E24486"/>
<path d="M31.4613 34.0114C32.1994 34.706 33.0333 35.2554 33.9226 35.6598C34.4151 35.8832 34.9255 36.0627 35.4454 36.1978C37.2681 35.7567 39.0217 34.9976 40.6085 33.9221C40.2676 31.9639 39.5112 30.1369 38.4282 28.5239C40.1443 29.5402 42.0862 30.2486 44.167 30.5666C45.3079 29.0719 46.1114 27.4206 46.5771 25.7045C46.433 25.2151 46.2413 24.7354 46.0018 24.2713C45.5727 23.4397 44.9913 22.6592 44.2573 21.9689C42.4905 20.3062 40.1753 19.4746 37.8595 19.4751C35.8472 19.4751 33.8348 20.1028 32.1821 21.3588C32.5509 22.2697 33.0145 23.138 33.5599 23.952C32.6944 23.4388 31.7722 23.0048 30.8033 22.6592C27.9433 26.0023 28.1625 30.907 31.4613 34.0114ZM37.8601 21.0027C39.843 21.0027 41.7067 21.7298 43.1093 23.0493C43.6993 23.604 44.1807 24.2398 44.5414 24.9387C44.6733 25.1946 44.7894 25.4595 44.8868 25.7297C44.546 26.8368 44.0539 27.8875 43.4178 28.8671C41.9594 28.5382 40.576 27.9897 39.2931 27.2302L36.6177 25.6457L34.9336 23.1352C34.6672 22.7385 34.4237 22.3279 34.2046 21.9069C35.312 21.3192 36.5746 21.0027 37.8601 21.0027ZM32.695 25.2443L35.3703 26.8301L37.0555 29.3397C37.8651 30.5456 38.4505 31.8464 38.8021 33.2184C37.7616 33.819 36.6456 34.2839 35.4703 34.6062C35.1837 34.515 34.9016 34.4066 34.6292 34.283C33.8825 33.9436 33.2033 33.4886 32.6097 32.9296C30.2134 30.6745 29.7695 27.2464 31.3882 24.5587C31.8362 24.7654 32.2734 24.9946 32.695 25.2443Z" fill="#E24486"/>
<path d="M4.73998 82.2095C3.43984 82.2095 2.32485 82.6448 1.39501 83.5146C0.465172 84.3849 0 85.4418 0 86.6849V96.8889C0 98.122 0.459589 99.1765 1.37928 100.052C2.29846 100.927 3.41904 101.364 4.73998 101.364C6.05028 101.364 7.17085 100.929 8.10069 100.059C9.03052 99.1889 9.4957 98.1325 9.4957 96.8889V86.6849C9.4957 85.4518 9.03307 84.3973 8.10882 83.5223C7.18354 82.6472 6.06093 82.2095 4.73998 82.2095ZM6.37241 96.8593C6.37241 97.3071 6.20602 97.6871 5.87324 98.0007C5.54047 98.3139 5.13618 98.4705 4.66035 98.4705C4.18503 98.4705 3.77819 98.3139 3.43984 98.0007C3.10149 97.6876 2.93257 97.3071 2.93257 96.8593V86.6252C2.93257 86.1775 3.10149 85.7975 3.43984 85.4838C3.77819 85.1707 4.18503 85.0141 4.66035 85.0141C5.13567 85.0141 5.54047 85.1707 5.87324 85.4838C6.20602 85.797 6.37241 86.1775 6.37241 86.6252V96.8593Z" fill="#E24486"/>
<path d="M22.6545 92.9812C23.7192 92.0656 24.2539 90.9485 24.2539 89.6252V86.907C24.2539 85.555 23.9075 84.5 23.2247 83.7477C22.4399 82.8798 21.2123 82.4487 19.5464 82.4487H14.8191V101.141H17.8145V94.0982H19.8168L21.6303 101.141H24.8703L22.6545 92.9812ZM21.335 89.683C21.335 90.1336 21.1722 90.5169 20.8359 90.8334C20.5047 91.1499 20.1024 91.308 19.6235 91.308H17.8151V85.3297H19.6235C20.7649 85.3297 21.335 85.8715 21.335 86.9547V89.683Z" fill="#E24486"/>
<path d="M34.3663 82.2412C33.056 82.2412 31.9354 82.6766 31.0056 83.5464C30.0758 84.4166 29.6106 85.4736 29.6106 86.7167V96.9207C29.6106 98.1442 30.0727 99.1935 30.9975 100.069C31.9223 100.944 33.0449 101.381 34.3658 101.381C35.666 101.381 36.7804 100.949 37.7108 100.083C38.6406 99.2178 39.1058 98.1638 39.1058 96.9207V90.3863H34.3344V93.221H35.9987V96.8954C35.9987 97.3417 35.8293 97.7213 35.4915 98.0335C35.1531 98.3457 34.7463 98.5023 34.2709 98.5023C33.7951 98.5023 33.3908 98.3457 33.0581 98.0325C32.7253 97.7193 32.5589 97.3389 32.5589 96.8911V86.657C32.5589 86.2092 32.7253 85.8268 33.0581 85.5084C33.3908 85.19 33.7951 85.031 34.2709 85.031C34.7463 85.031 35.1531 85.19 35.4915 85.5084C35.8293 85.8268 35.9987 86.2097 35.9987 86.657V88.8501H39.1058V86.7167C39.1058 85.4836 38.6462 84.429 37.7265 83.554C36.8078 82.679 35.6873 82.2412 34.3663 82.2412Z" fill="#E24486"/>
<path d="M51.346 82.4478H47.2243L43.8469 101.14H46.9646L47.6931 96.8446H50.8209L51.524 101.14H54.6722L51.346 82.4478ZM48.1567 94.0978L49.2672 86.7294L50.3776 94.0978H48.1567Z" fill="#E24486"/>
<path d="M70.2073 82.4336H67.2109V95.0059L63.2348 82.4336H59.8716V101.141H62.8671V89.1613L66.9892 101.141H70.2073V82.4336Z" fill="#E24486"/>
<path d="M78.5609 82.4487H75.5649V101.142H78.5609V82.4487Z" fill="#E24486"/>
<path d="M93.3824 88.8501V86.7167C93.3824 85.4836 92.9228 84.429 92.0031 83.554C91.0834 82.679 89.9634 82.2412 88.6424 82.2412C87.3321 82.2412 86.2116 82.6766 85.2817 83.5464C84.3519 84.4166 83.8867 85.4736 83.8867 86.7167V96.9207C83.8867 98.1542 84.3489 99.2059 85.2736 100.076C86.1979 100.946 87.321 101.381 88.6419 101.381C89.9421 101.381 91.0566 100.949 91.9869 100.083C92.9167 99.2178 93.3819 98.1638 93.3819 96.9207V94.3099H90.2749V96.8906C90.2749 97.3384 90.1054 97.7184 89.7676 98.032C89.4292 98.3452 89.0224 98.5018 88.5471 98.5018C88.0712 98.5018 87.6669 98.3452 87.3342 98.032C87.0014 97.7188 86.835 97.3384 86.835 96.8906V86.6565C86.835 86.2087 87.0014 85.8263 87.3342 85.5079C87.6669 85.1895 88.0712 85.0306 88.5471 85.0306C89.0224 85.0306 89.4292 85.1895 89.7676 85.5079C90.1054 85.8263 90.2749 86.2092 90.2749 86.6565V88.8496H93.3824V88.8501Z" fill="#E24486"/>
<path d="M27.0409 112.834V113.291C27.0409 113.519 26.9947 113.735 26.9029 113.94C26.811 114.144 26.6842 114.325 26.5224 114.485C26.3606 114.644 26.1709 114.77 25.9543 114.863C25.7371 114.957 25.5038 115.004 25.2537 115.004C25.0407 115.004 24.8235 114.976 24.6029 114.921C24.3822 114.865 24.1839 114.768 24.0073 114.63C23.8308 114.491 23.6857 114.313 23.5716 114.095C23.4574 113.877 23.4006 113.599 23.4006 113.26V109.191C23.4006 108.949 23.4448 108.724 23.533 108.517C23.6213 108.309 23.7461 108.129 23.9079 107.977C24.0697 107.824 24.2625 107.705 24.4872 107.619C24.7115 107.532 24.9595 107.489 25.2314 107.489C25.761 107.489 26.1912 107.652 26.5219 107.977C26.6837 108.136 26.81 108.324 26.9024 108.542C26.9942 108.76 27.0403 108.997 27.0403 109.254V109.669H25.9152V109.316C25.9152 109.108 25.8528 108.929 25.7275 108.776C25.6022 108.624 25.4333 108.548 25.2202 108.548C24.9407 108.548 24.7551 108.629 24.6633 108.792C24.5714 108.955 24.5253 109.161 24.5253 109.41V113.188C24.5253 113.402 24.575 113.582 24.6744 113.727C24.7738 113.872 24.9519 113.945 25.2091 113.945C25.2826 113.945 25.3618 113.933 25.4465 113.909C25.5307 113.885 25.6098 113.845 25.6834 113.79C25.7493 113.734 25.8046 113.658 25.8487 113.562C25.8929 113.465 25.9147 113.343 25.9147 113.198V112.835H27.0409V112.834Z" fill="#E24486"/>
<path d="M28.9927 109.295C28.9927 108.997 29.048 108.734 29.158 108.506C29.2681 108.278 29.4153 108.087 29.5994 107.935C29.7759 107.79 29.9763 107.679 30.2005 107.603C30.4247 107.527 30.651 107.489 30.8787 107.489C31.1065 107.489 31.3327 107.527 31.557 107.603C31.7812 107.679 31.9851 107.789 32.1693 107.935C32.3458 108.087 32.4888 108.277 32.5994 108.506C32.7095 108.734 32.7648 108.997 32.7648 109.295V113.197C32.7648 113.508 32.7095 113.775 32.5994 113.996C32.4894 114.218 32.3458 114.401 32.1693 114.546C31.9856 114.699 31.7812 114.813 31.557 114.889C31.3327 114.965 31.1065 115.003 30.8787 115.003C30.651 115.003 30.4247 114.965 30.2005 114.889C29.9763 114.813 29.7759 114.699 29.5994 114.546C29.4158 114.401 29.2686 114.218 29.158 113.996C29.048 113.775 28.9927 113.508 28.9927 113.197V109.295ZM30.1178 113.197C30.1178 113.453 30.1934 113.642 30.3441 113.763C30.4947 113.884 30.6728 113.945 30.8787 113.945C31.0847 113.945 31.2627 113.884 31.4139 113.763C31.5646 113.642 31.6401 113.454 31.6401 113.197V109.295C31.6401 109.039 31.5646 108.85 31.4139 108.729C31.2632 108.608 31.0847 108.548 30.8787 108.548C30.6728 108.548 30.4947 108.608 30.3441 108.729C30.1934 108.85 30.1178 109.039 30.1178 109.295V113.197Z" fill="#E24486"/>
<path d="M38.5002 109.678H37.3751V109.44C37.3751 109.198 37.3148 108.988 37.193 108.812C37.0718 108.635 36.8678 108.547 36.5807 108.547C36.4265 108.547 36.3012 108.575 36.2058 108.63C36.1105 108.686 36.0329 108.755 35.9745 108.838C35.9157 108.928 35.8751 109.03 35.8533 109.144C35.831 109.258 35.8203 109.377 35.8203 109.502C35.8203 109.647 35.8259 109.768 35.837 109.865C35.8482 109.962 35.8756 110.048 35.9197 110.125C35.9639 110.201 36.0283 110.267 36.113 110.322C36.1972 110.377 36.3129 110.433 36.4605 110.488L37.3208 110.81C37.5709 110.9 37.7733 111.006 37.9276 111.126C38.0818 111.248 38.203 111.388 38.2913 111.547C38.3719 111.713 38.4272 111.901 38.4566 112.112C38.486 112.323 38.5008 112.564 38.5008 112.834C38.5008 113.145 38.4678 113.434 38.4013 113.7C38.3354 113.966 38.2283 114.193 38.0817 114.38C37.9275 114.574 37.7251 114.726 37.475 114.837C37.225 114.947 36.9196 115.003 36.5594 115.003C36.2875 115.003 36.0339 114.958 35.7985 114.868C35.5631 114.778 35.3612 114.653 35.1918 114.494C35.0224 114.335 34.8884 114.15 34.7895 113.939C34.6901 113.728 34.6404 113.498 34.6404 113.248V112.854H35.7655V113.186C35.7655 113.38 35.8264 113.555 35.9476 113.71C36.0689 113.866 36.2728 113.944 36.5594 113.944C36.7507 113.944 36.8993 113.918 37.0063 113.867C37.1128 113.815 37.1955 113.741 37.2544 113.644C37.3132 113.547 37.3482 113.431 37.3594 113.296C37.3706 113.161 37.3756 113.01 37.3756 112.844C37.3756 112.65 37.3685 112.491 37.3533 112.367C37.3386 112.242 37.3092 112.142 37.265 112.066C37.2133 111.989 37.1453 111.927 37.0611 111.879C36.9764 111.831 36.8643 111.779 36.7248 111.723L35.9197 111.412C35.4343 111.225 35.1091 110.978 34.9437 110.67C34.7784 110.362 34.6957 109.976 34.6957 109.513C34.6957 109.236 34.7363 108.973 34.8169 108.724C34.8976 108.475 35.0188 108.261 35.1806 108.081C35.3348 107.901 35.5317 107.757 35.7706 107.65C36.0095 107.543 36.2941 107.489 36.6254 107.489C36.9049 107.489 37.1605 107.538 37.3919 107.634C37.6232 107.731 37.8235 107.859 37.993 108.018C38.3308 108.35 38.5002 108.731 38.5002 109.16V109.678Z" fill="#E24486"/>
<path d="M40.4409 114.945V107.555H41.5219L42.9666 111.468H42.989L44.4225 107.555H45.5142V114.945H44.3891V110.451H44.3667L43.2528 113.627H42.6902L41.5874 110.451H41.565V114.945H40.4409Z" fill="#E24486"/>
<path d="M47.6763 114.945V107.555H51.0294V108.551H48.8014V110.721H50.7428V111.717H48.8014V113.886H51.0294V114.945H47.6763Z" fill="#E24486"/>
<path d="M53.5988 114.945V108.551H52.2976V107.555H56.0256V108.551H54.7239V114.945H53.5988Z" fill="#E24486"/>
<path d="M57.6575 114.945V107.555H58.7826V114.945H57.6575Z" fill="#E24486"/>
<path d="M64.5504 112.834V113.291C64.5504 113.519 64.5042 113.735 64.4124 113.94C64.3206 114.144 64.1937 114.325 64.0319 114.485C63.8701 114.644 63.6804 114.77 63.4638 114.863C63.2467 114.957 63.0133 115.004 62.7632 115.004C62.5497 115.004 62.3331 114.976 62.1124 114.921C61.8917 114.865 61.6934 114.768 61.5169 114.63C61.3403 114.491 61.1953 114.313 61.0811 114.095C60.967 113.877 60.9102 113.599 60.9102 113.26V109.191C60.9102 108.949 60.9543 108.724 61.0425 108.517C61.1308 108.309 61.2556 108.129 61.4174 107.977C61.5793 107.824 61.772 107.705 61.9968 107.619C62.221 107.532 62.469 107.489 62.7409 107.489C63.2705 107.489 63.7007 107.652 64.0314 107.977C64.1933 108.136 64.3201 108.324 64.4119 108.542C64.5037 108.76 64.5499 108.997 64.5499 109.254V109.669H63.4247V109.316C63.4247 109.108 63.3623 108.929 63.237 108.776C63.1118 108.624 62.9428 108.548 62.7298 108.548C62.4503 108.548 62.2646 108.629 62.1728 108.792C62.081 108.955 62.0348 109.161 62.0348 109.41V113.188C62.0348 113.402 62.0845 113.582 62.1839 113.727C62.2833 113.872 62.4614 113.945 62.7186 113.945C62.7922 113.945 62.8713 113.933 62.956 113.909C63.0407 113.885 63.1193 113.845 63.1929 113.79C63.2588 113.734 63.3141 113.658 63.3583 113.562C63.4024 113.465 63.4242 113.343 63.4242 113.198V112.835H64.5504V112.834Z" fill="#E24486"/>
<path d="M70.2085 109.678H69.0834V109.44C69.0834 109.198 69.023 108.988 68.9012 108.812C68.78 108.635 68.5756 108.547 68.289 108.547C68.1348 108.547 68.0095 108.575 67.9141 108.63C67.8182 108.686 67.7411 108.755 67.6823 108.838C67.6234 108.928 67.5828 109.03 67.561 109.144C67.5387 109.258 67.5281 109.377 67.5281 109.502C67.5281 109.647 67.5337 109.768 67.5448 109.865C67.556 109.962 67.5833 110.048 67.6275 110.125C67.6716 110.201 67.736 110.267 67.8207 110.322C67.905 110.377 68.0206 110.433 68.1682 110.488L69.0286 110.81C69.2787 110.9 69.4811 111.006 69.6353 111.126C69.7895 111.248 69.9112 111.388 69.999 111.547C70.0796 111.713 70.1349 111.901 70.1644 112.112C70.1938 112.323 70.2085 112.564 70.2085 112.834C70.2085 113.145 70.1755 113.434 70.1091 113.7C70.0431 113.966 69.9361 114.193 69.7895 114.38C69.6353 114.574 69.4329 114.726 69.1828 114.837C68.9327 114.947 68.6273 115.003 68.2671 115.003C67.9952 115.003 67.7416 114.958 67.5062 114.868C67.2709 114.778 67.0685 114.653 66.8995 114.494C66.7301 114.335 66.5962 114.15 66.4973 113.939C66.3979 113.728 66.3481 113.498 66.3481 113.248V112.854H67.4733V113.186C67.4733 113.38 67.5341 113.555 67.6554 113.71C67.7766 113.866 67.9806 113.944 68.2677 113.944C68.4589 113.944 68.6075 113.918 68.7146 113.867C68.8211 113.815 68.9038 113.741 68.9626 113.644C69.0215 113.547 69.0565 113.431 69.0676 113.296C69.0788 113.161 69.0844 113.01 69.0844 112.844C69.0844 112.65 69.0773 112.491 69.0621 112.367C69.0473 112.242 69.0179 112.142 68.9738 112.066C68.922 111.989 68.8546 111.927 68.7699 111.879C68.6852 111.831 68.573 111.779 68.4335 111.723L67.6285 111.412C67.143 111.225 66.8179 110.978 66.6525 110.67C66.4871 110.362 66.4044 109.976 66.4044 109.513C66.4044 109.236 66.4445 108.973 66.5257 108.724C66.6063 108.475 66.7276 108.261 66.8899 108.081C67.0441 107.901 67.2409 107.757 67.4799 107.65C67.7188 107.543 68.0039 107.489 68.3346 107.489C68.6141 107.489 68.8698 107.538 69.1011 107.634C69.333 107.731 69.5333 107.859 69.7023 108.018C70.0406 108.35 70.2095 108.731 70.2095 109.16V109.678H70.2085Z" fill="#E24486"/>
</svg>
