<svg width="118" height="99" viewBox="0 0 118 99" fill="none" xmlns="http://www.w3.org/2000/svg">
<path d="M60.2254 15.2998C60.4514 15.3211 60.6742 15.3483 60.8939 15.3815C61.0085 15.3969 61.1199 15.4147 61.2345 15.436C61.3459 15.4508 61.4542 15.4722 61.5656 15.4935C61.6487 15.5083 61.7312 15.5237 61.8143 15.5421C62.0592 15.59 62.3047 15.6475 62.5433 15.7085C62.6515 15.7328 62.7567 15.763 62.8649 15.7932C62.9701 15.8205 63.0783 15.8507 63.1835 15.8839C63.2886 15.9141 63.3937 15.9473 63.4989 15.9804C63.604 16.0136 63.706 16.0468 63.8111 16.0835C63.9131 16.1167 64.0119 16.1528 64.1133 16.189C64.2184 16.2281 64.3204 16.2678 64.4255 16.3098C64.5275 16.346 64.6295 16.3886 64.7277 16.4307C64.9285 16.5124 65.1255 16.6001 65.3232 16.6908C65.4693 16.7601 65.6159 16.83 65.7595 16.9022C66.1957 17.1167 66.6156 17.3525 67.0204 17.6096C67.383 17.8335 67.7336 18.0723 68.0742 18.3294C68.1951 18.42 68.3159 18.5136 68.4374 18.6108C68.6168 18.7512 68.7868 18.9017 68.958 19.051C69.15 19.2139 69.342 19.3786 69.5227 19.5569C69.5542 19.5871 69.5894 19.6173 69.6216 19.6475C69.6694 19.6931 69.7204 19.7441 69.7651 19.7927C69.8576 19.8833 69.9464 19.971 70.0295 20.0646C70.1189 20.1552 70.2013 20.2459 70.2844 20.3395C70.4531 20.5267 70.6187 20.7174 70.7748 20.9141C70.8447 20.9959 70.9114 21.077 70.9725 21.1617C71.0808 21.298 71.1827 21.4372 71.2841 21.5758C71.3477 21.6665 71.415 21.7571 71.4786 21.8507C71.4818 21.8537 71.4849 21.8566 71.4849 21.8596C71.5485 21.9502 71.6089 22.0379 71.6631 22.1286C71.7267 22.2222 71.7871 22.3128 71.8444 22.407V22.41C71.9621 22.6007 72.0767 22.7909 72.1849 22.9846C72.2391 23.0812 72.2901 23.1813 72.3442 23.2779C72.3983 23.378 72.4493 23.4775 72.4972 23.577C72.5324 23.6529 72.5702 23.7251 72.6055 23.8039C72.6181 23.8282 72.6306 23.8525 72.6407 23.8798C72.6917 23.9793 72.7396 24.0824 72.7805 24.1849C72.8283 24.285 72.873 24.3875 72.9146 24.4899V24.4929C73.0449 24.8045 73.1626 25.1185 73.2677 25.436C73.2772 25.4692 73.2897 25.5024 73.2992 25.5362C73.3502 25.6872 73.3949 25.8413 73.4396 25.9959C73.7896 27.2204 73.9778 28.5083 73.9778 29.8383C73.9778 31.516 73.6782 33.1245 73.1311 34.6268C72.8636 35.3585 72.5387 36.0599 72.1566 36.7341C72.0993 36.8306 72.0452 36.9248 71.9879 37.0214C69.2369 38.5723 66.1554 39.6636 62.8756 40.1742V40.1683C60.7775 37.4082 59.3447 34.3277 58.5842 31.1351C57.82 34.3277 56.3973 37.4112 54.3054 40.1772C51.02 39.6695 47.9378 38.5901 45.1806 37.0392C45.1233 36.9426 45.0691 36.8484 45.015 36.7518C44.9577 36.6582 44.9036 36.5617 44.8557 36.4645C44.8016 36.3679 44.7506 36.2708 44.6996 36.1713C44.6486 36.0717 44.6008 35.9716 44.5529 35.8721C44.5051 35.7726 44.4604 35.6725 44.4125 35.5729C44.3232 35.3703 44.2375 35.1677 44.1576 34.9621C44.116 34.8561 44.0745 34.7536 44.0367 34.6476C43.9857 34.5143 43.941 34.3816 43.8963 34.2453C43.89 34.2329 43.8869 34.221 43.8838 34.2092C43.868 34.1671 43.8548 34.1245 43.8422 34.0794C43.8107 33.9829 43.7818 33.8887 43.7534 33.7892C43.7245 33.6926 43.6962 33.5954 43.6703 33.4989C43.6099 33.2814 43.5558 33.0605 43.5079 32.8365C43.4884 32.7607 43.4727 32.6855 43.4601 32.6096C43.438 32.5101 43.4185 32.41 43.4028 32.3105C43.3839 32.2109 43.3644 32.1079 43.3518 32.0083C43.3329 31.9059 43.3203 31.8057 43.3071 31.7032C43.2945 31.6274 43.2851 31.5522 43.2782 31.4763C43.2782 31.4645 43.275 31.4521 43.275 31.4402C43.2719 31.4313 43.2719 31.4254 43.2719 31.4159C43.2687 31.4041 43.2656 31.3887 43.2656 31.3768C43.2435 31.1772 43.224 30.9775 43.2146 30.7785C43.2083 30.673 43.202 30.5705 43.1957 30.4651V30.4343C43.1894 30.2376 43.1862 30.038 43.1862 29.8389C43.1862 29.7968 43.1881 29.7542 43.1881 29.7121C43.1913 29.3733 43.202 29.0362 43.2309 28.705C43.2404 28.5812 43.253 28.4574 43.2662 28.333C43.2952 28.0456 43.3329 27.7613 43.3839 27.4775C43.4091 27.3413 43.4318 27.2115 43.4569 27.0782C43.4601 27.0693 43.4632 27.0599 43.4632 27.0539C43.4884 26.9118 43.5205 26.7725 43.5558 26.6339C43.6193 26.3561 43.6924 26.0806 43.7755 25.8116C43.8548 25.5397 43.9442 25.2708 44.0462 25.0077C44.0909 24.8839 44.1387 24.7601 44.1859 24.6357C44.2048 24.5871 44.2243 24.5421 44.2432 24.4965C44.2942 24.3667 44.3515 24.2394 44.4088 24.1126C44.4661 23.9828 44.5233 23.8584 44.5869 23.7317C44.6222 23.6623 44.6568 23.5895 44.692 23.5202C44.7304 23.4414 44.7714 23.3632 44.8129 23.2844C44.8891 23.1363 44.9722 22.9911 45.0547 22.846C45.1377 22.7008 45.2234 22.5557 45.3096 22.4165C45.37 22.3229 45.4273 22.2293 45.4909 22.1351C45.6118 21.9479 45.7389 21.763 45.8699 21.5818C45.9335 21.4911 45.997 21.4034 46.0669 21.3158C46.1148 21.2524 46.1657 21.186 46.2167 21.122C46.2998 21.0101 46.3886 20.9017 46.4811 20.7927V20.7897C46.6247 20.6203 46.7707 20.4508 46.9205 20.285C47.2227 19.9556 47.5412 19.638 47.8692 19.3359C47.9202 19.2873 47.9712 19.2393 48.0253 19.1937C48.0763 19.1487 48.1305 19.1001 48.1815 19.0545C48.2866 18.9609 48.3949 18.8703 48.5031 18.7826C48.6083 18.6949 48.7134 18.6102 48.8217 18.5284C48.9363 18.4378 49.0508 18.3501 49.1685 18.2624C49.229 18.2204 49.2863 18.1807 49.3435 18.1386C49.3467 18.1357 49.353 18.1327 49.3561 18.1297C49.3719 18.1209 49.3882 18.1084 49.404 18.0966C49.4103 18.0906 49.4166 18.0877 49.426 18.0818C49.528 18.0118 49.6237 17.9396 49.7257 17.8732C49.8818 17.7701 50.0373 17.6706 50.1965 17.5741C50.3017 17.5077 50.4036 17.4473 50.5088 17.3869C50.5377 17.3685 50.5692 17.3507 50.5982 17.3323C50.7921 17.2204 50.9929 17.1114 51.1968 17.0059C51.2988 16.9544 51.4008 16.9005 51.5091 16.8489C51.6362 16.7855 51.7672 16.7222 51.8975 16.6647C52.0278 16.6043 52.1587 16.5468 52.2922 16.4923C52.4162 16.4378 52.5409 16.3868 52.6649 16.3383C52.7889 16.2867 52.9135 16.2417 53.0407 16.1961C53.0596 16.1872 53.0791 16.1777 53.098 16.1718C53.098 16.1718 53.098 16.1718 53.1043 16.1718C53.2447 16.1203 53.3907 16.0693 53.5342 16.0237C53.6583 15.981 53.7829 15.9419 53.9069 15.9058C53.9132 15.9028 53.9195 15.9028 53.9258 15.8999C54.058 15.8596 54.1921 15.8211 54.3281 15.7849C54.2513 15.8051 54.1745 15.8252 54.0977 15.8454C54.2122 15.8152 54.3268 15.7849 54.4414 15.7547C54.6705 15.6913 54.8997 15.6368 55.132 15.5883C55.3642 15.5367 55.5965 15.4887 55.8326 15.452C55.944 15.4307 56.0586 15.4129 56.17 15.3975C56.4118 15.3614 56.6573 15.3312 56.9053 15.3039C56.8033 15.0894 56.6982 14.878 56.5899 14.6659V14.6629C55.3384 12.2174 53.6419 9.92237 51.5053 7.89393C47.443 4.0361 42.3874 1.69959 37.1215 0.886203C34.0205 4.99167 32.193 10.0255 32.193 15.4639C32.193 18.3507 32.7086 21.1232 33.6572 23.705V23.708C33.6893 23.7986 33.724 23.8892 33.7624 23.9799C33.8102 24.1132 33.8612 24.2459 33.9153 24.3792V24.3821C34.0966 24.8294 34.288 25.2678 34.4913 25.7003C34.5776 25.8815 34.6664 26.0628 34.7558 26.2411C34.8036 26.3347 34.8514 26.4283 34.8993 26.5225C34.9182 26.5616 34.9408 26.5984 34.9597 26.6375C34.9786 26.6736 34.9981 26.7097 35.0201 26.7465C35.068 26.8401 35.1158 26.9307 35.1668 27.0214C35.2178 27.112 35.2688 27.2026 35.3198 27.2933C35.3928 27.423 35.4696 27.5534 35.5426 27.6801C35.6188 27.8099 35.6988 27.9372 35.7749 28.064C35.8543 28.1908 35.9342 28.3182 36.0135 28.4449C36.0897 28.5717 36.1728 28.6961 36.2553 28.8199L36.249 28.817C36.2169 28.7986 36.1854 28.7779 36.1533 28.7625C35.994 28.6659 35.8316 28.5717 35.6692 28.4811C35.6276 28.4568 35.5829 28.4325 35.542 28.4088C35.3538 28.3028 35.1662 28.2032 34.9755 28.1002C34.966 28.0972 34.9534 28.0913 34.9433 28.0853C34.7362 27.9763 34.5291 27.8709 34.3163 27.7648H34.3132C34.0935 27.6588 33.8707 27.5534 33.6447 27.4503C33.4665 27.3685 33.2852 27.2868 33.1033 27.2115C33.0365 27.1813 32.973 27.1541 32.9056 27.1268C32.8962 27.1238 32.8867 27.1179 32.8766 27.1144C32.6758 27.0297 32.4756 26.9479 32.2748 26.8697C31.8102 26.6884 31.3419 26.519 30.8647 26.362H30.8616C28.1584 25.4704 25.2519 24.9864 22.2271 24.9864C16.4834 24.9864 11.1665 26.7311 6.83667 29.6902C7.70289 34.6754 10.1605 39.461 14.2102 43.3064C15.286 44.3253 16.4293 45.2412 17.6297 46.0481C18.8302 46.8555 20.0842 47.5564 21.3804 48.1523H21.3836C21.6064 48.2554 21.8324 48.355 22.0552 48.4515C22.0741 48.2821 22.0968 48.1162 22.122 47.9497C22.122 47.9409 22.122 47.9343 22.1251 47.9254C22.1472 47.759 22.1761 47.5931 22.2076 47.4296L22.2743 47.0943C22.3222 46.8674 22.3763 46.647 22.4367 46.4231C22.4619 46.3265 22.4877 46.2264 22.516 46.1298C22.5412 46.051 22.5639 45.9693 22.5859 45.8911C22.6149 45.8064 22.6401 45.7246 22.669 45.6434C22.7011 45.5439 22.7357 45.4438 22.771 45.3443C22.8063 45.2447 22.8409 45.1446 22.8793 45.0481C22.9177 44.9515 22.9523 44.8544 22.9907 44.7608C23.0323 44.6612 23.0732 44.5611 23.1179 44.4645C23.1563 44.368 23.201 44.2708 23.245 44.1772C23.3313 43.9871 23.4232 43.7992 23.5189 43.612C23.7096 43.24 23.9167 42.8775 24.1396 42.5238C24.251 42.3455 24.3656 42.1731 24.4864 42.0007C24.5343 41.9314 24.5853 41.8585 24.6331 41.7892C24.7061 41.6896 24.776 41.5895 24.8528 41.493C24.9548 41.3597 25.0568 41.227 25.1644 41.0937C25.2028 41.0487 25.2406 41.003 25.2759 40.9604C25.3457 40.8727 25.4194 40.788 25.4924 40.7033C25.5465 40.6428 25.5975 40.5854 25.6517 40.525C25.7921 40.368 25.935 40.2169 26.0848 40.0652C26.1578 39.9894 26.2315 39.9171 26.3076 39.8413C26.3807 39.769 26.4575 39.6962 26.5336 39.6239C26.5752 39.5848 26.6167 39.5481 26.6576 39.509C26.696 39.4728 26.7407 39.4331 26.7817 39.394C26.7911 39.3881 26.8005 39.3757 26.8138 39.3668C26.9094 39.2821 27.0014 39.1973 27.1002 39.1191C27.148 39.0771 27.1959 39.0344 27.2469 38.9953C27.2947 38.9562 27.3457 38.9136 27.3935 38.8745C27.4924 38.7957 27.5912 38.7175 27.6926 38.6387C27.7914 38.5629 27.8934 38.4876 27.9985 38.4118C28.1005 38.333 28.2056 38.2607 28.3108 38.1914C28.397 38.131 28.4826 38.0735 28.5689 38.0161C28.601 37.9918 28.6324 37.974 28.6645 37.9527C28.7697 37.8863 28.8748 37.8164 28.9799 37.753C29.1933 37.6233 29.4067 37.4959 29.6264 37.3751C29.7347 37.3146 29.8461 37.2542 29.9576 37.1967C30.0721 37.1363 30.1867 37.0759 30.3013 37.0214C30.7659 36.7945 31.2437 36.586 31.7341 36.4047C31.8965 36.3413 32.062 36.2838 32.2276 36.2293C32.3932 36.1719 32.5619 36.1174 32.7306 36.0694C32.9566 36.003 33.1826 35.9426 33.4117 35.8822C33.6698 35.8188 33.9304 35.7584 34.1917 35.7068C34.3252 35.6825 34.4561 35.6582 34.5896 35.6345C34.7199 35.6132 34.854 35.5889 34.9874 35.5711C35.1215 35.5528 35.2581 35.535 35.3916 35.5166C35.525 35.5018 35.6623 35.4864 35.7989 35.4716C36.0696 35.4473 36.3434 35.426 36.6204 35.4142C36.7444 35.4082 36.8659 35.4053 36.9899 35.4023C37.0535 35.4023 37.1139 35.4023 37.1775 35.3993H37.362C37.8045 35.3993 38.2408 35.4177 38.6739 35.4509C38.8904 35.4663 39.107 35.487 39.3204 35.5143C39.4765 35.5356 39.6326 35.5534 39.785 35.5777C39.9411 35.602 40.0934 35.6262 40.2495 35.6565L40.2974 35.6653C40.361 35.6742 40.4246 35.6867 40.4888 35.7015C40.5492 35.7133 40.6065 35.7258 40.6669 35.7347C40.6701 35.7376 40.6732 35.7376 40.6764 35.7376C40.8514 35.7738 41.0264 35.8134 41.1982 35.8555C41.6087 35.955 42.0103 36.07 42.405 36.2003C42.5926 36.2607 42.7777 36.3271 42.959 36.394C43.0994 36.4456 43.2391 36.5001 43.3795 36.5575C43.4878 36.5996 43.5929 36.6452 43.698 36.6902C43.8063 36.7329 43.9083 36.7809 44.0134 36.8294C44.1186 36.8745 44.2205 36.923 44.3219 36.9746C44.4239 37.0202 44.529 37.0712 44.6278 37.1257C44.7298 37.1742 44.828 37.2252 44.9269 37.2797C44.9269 37.2826 44.93 37.2826 44.93 37.2826C46.563 39.9035 47.7093 42.8212 48.2476 45.9379C45.3342 47.9302 42.0965 49.2904 38.728 50.0161C42.0965 50.7359 45.3442 52.0902 48.2538 54.0795C47.7219 57.1962 46.5793 60.1228 44.9489 62.7407C45.1623 62.6257 45.3694 62.5078 45.5759 62.384C45.4487 62.5807 45.3209 62.7798 45.2032 62.9764C47.9574 61.4284 51.0325 60.3372 54.3186 59.8266C56.4137 62.5896 57.8464 65.6702 58.6132 68.8657C59.3711 65.6702 60.797 62.5866 62.8889 59.8206C66.1712 60.3283 69.2564 61.4077 72.0137 62.9587C71.8928 62.7561 71.772 62.5594 71.641 62.3662C71.845 62.4841 72.0483 62.605 72.2586 62.717C72.3889 62.9225 72.5198 63.1281 72.6565 63.3307C73.7071 64.9119 74.9454 66.3751 76.3303 67.6933C77.7215 69.0084 79.2658 70.1785 80.9371 71.1791C81.9846 71.8076 83.0831 72.3639 84.2257 72.8479C84.5694 72.9931 84.9131 73.1323 85.2638 73.262C85.5024 73.3497 85.7447 73.4374 85.9896 73.5191C85.9959 73.5221 86.0054 73.525 86.0117 73.528C86.1168 73.5641 86.2188 73.6038 86.327 73.64C89.0302 74.5286 91.9398 75.0097 94.9678 75.0097C100.708 75.0097 106.021 73.2715 110.352 70.3088C110.212 69.4954 110.027 68.6885 109.801 67.89C109.734 67.6512 109.664 67.4154 109.588 67.1767C109.563 67.0949 109.537 67.0132 109.508 66.9291C109.473 66.826 109.439 66.7205 109.403 66.6174C108.865 65.0517 108.161 63.525 107.289 62.0647C107.153 61.8349 107.012 61.605 106.866 61.3787C106.866 61.3787 106.866 61.3757 106.863 61.3757C106.506 60.8194 106.124 60.275 105.719 59.743C104.904 58.6761 103.991 57.6542 102.978 56.6956C102.577 56.3117 102.163 55.9456 101.743 55.589C100.759 54.7667 99.7238 54.0232 98.648 53.3609C98.342 53.1737 98.0335 52.9918 97.7213 52.8165H97.7181C97.2504 52.5564 96.7758 52.3088 96.2948 52.073C96.2917 52.073 96.2917 52.073 96.2917 52.073C96.1324 51.9912 95.9731 51.916 95.8107 51.8431C95.7345 51.8099 95.6577 51.7768 95.5816 51.7436C95.5627 51.7347 95.5432 51.7288 95.5243 51.7193C95.394 51.6618 95.2662 51.6044 95.139 51.5499C94.636 56.0209 92.0128 59.8905 88.2395 62.2306C88.0456 62.3514 87.8479 62.4664 87.6509 62.5783C87.5521 62.6358 87.4501 62.6903 87.3488 62.7418C87.1479 62.8508 86.9414 62.9533 86.7343 63.0535C86.6292 63.102 86.5241 63.15 86.419 63.1986C86.2119 63.2952 85.9953 63.3858 85.7825 63.4705C85.6679 63.5161 85.5534 63.5612 85.4388 63.6038C85.1744 63.7004 84.91 63.791 84.6393 63.8757C84.5531 63.903 84.4643 63.9302 84.3781 63.9545C84.1363 64.0268 83.894 64.0908 83.6491 64.1482C83.5251 64.1814 83.4042 64.2087 83.2795 64.233C83.1555 64.2602 83.0309 64.2875 82.9069 64.3118C82.6589 64.3603 82.407 64.4024 82.1559 64.4385C82.0287 64.4569 81.9009 64.4717 81.7737 64.4871C81.6466 64.5055 81.5188 64.5173 81.3916 64.5292C80.8761 64.5777 80.3536 64.6014 79.8254 64.6014H79.6472C79.5837 64.6014 79.5232 64.6014 79.4628 64.5985C79.4596 64.6003 79.4571 64.6009 79.4546 64.6009C79.4521 64.6009 79.4496 64.6003 79.4464 64.5985C79.3444 64.5985 79.2393 64.5955 79.1373 64.5896C78.9969 64.5837 78.8572 64.5748 78.7168 64.5653C78.5959 64.5564 78.4719 64.5469 78.3511 64.5351C78.2201 64.5262 78.0898 64.5138 77.9595 64.496C77.9501 64.496 77.9438 64.493 77.9337 64.493H77.9305C77.889 64.4901 77.8474 64.4841 77.8034 64.4782C77.6668 64.4599 77.5295 64.4421 77.3929 64.4208C77.2337 64.3994 77.0775 64.3722 76.9221 64.342C76.8264 64.3236 76.7307 64.3058 76.6356 64.2875C76.6067 64.2815 76.5815 64.2756 76.5525 64.2691C76.4921 64.2573 76.4285 64.2448 76.3681 64.23C76.3429 64.2241 76.3171 64.2211 76.2951 64.2152C76.1931 64.1939 76.0911 64.1696 75.9929 64.1459C75.7191 64.0795 75.4452 64.0067 75.1777 63.9219C75.0442 63.8858 74.9164 63.8432 74.7861 63.8011C74.3436 63.6559 73.9105 63.496 73.4899 63.3112C73.0694 63.1328 72.6621 62.9362 72.2643 62.7187C70.6275 60.1038 69.4818 57.1802 68.9467 54.0605C71.8532 52.0712 75.0977 50.714 78.46 49.9853C75.0946 49.2655 71.8507 47.9083 68.9373 45.9254C69.4724 42.8087 70.6118 39.8792 72.2391 37.2643C72.4399 37.1553 72.6401 37.0528 72.8472 36.9533C72.9492 36.9047 73.0512 36.8567 73.1557 36.8081C73.4679 36.663 73.7827 36.5303 74.1075 36.4088C74.3209 36.3271 74.5406 36.2483 74.7603 36.176C74.958 36.1097 75.1582 36.0492 75.359 35.9918C75.5629 35.9313 75.7663 35.8768 75.9702 35.8288C76.1773 35.7803 76.3845 35.7323 76.5909 35.6896C76.8012 35.6476 77.0108 35.6108 77.2211 35.5747C77.5396 35.5232 77.8613 35.4811 78.1861 35.4479C78.4027 35.4266 78.6192 35.4088 78.8358 35.3964C79.1669 35.3751 79.498 35.3662 79.8323 35.3662C84.0444 35.3662 87.8649 36.9746 90.6443 39.5836C90.7274 39.6559 90.8067 39.7347 90.8892 39.8164C91.1441 40.067 91.3921 40.3271 91.6244 40.5931C92.0065 41.0255 92.3629 41.4787 92.694 41.9533C92.8023 42.1103 92.9105 42.2708 93.0125 42.4337C93.2133 42.7453 93.4009 43.0652 93.5728 43.3952C93.6716 43.5765 93.7635 43.7613 93.8529 43.9456C93.936 44.118 94.0153 44.2933 94.0915 44.4716C94.1456 44.6014 94.1998 44.7288 94.2508 44.8585C94.4069 45.2513 94.5435 45.6476 94.6612 46.0558C94.8205 46.5966 94.9445 47.147 95.037 47.7122C95.0754 47.9391 95.1069 48.166 95.1327 48.3952C95.3619 48.2987 95.5816 48.1956 95.8076 48.0961C98.3835 46.9083 100.796 45.2998 102.936 43.2679C106.998 39.41 109.457 34.6097 110.316 29.609C105.993 26.6647 100.691 24.9325 94.964 24.9325C91.9234 24.9325 89.0038 25.4195 86.2849 26.3199C86.0463 26.3987 85.8071 26.4834 85.5716 26.5646C85.1039 26.737 84.6387 26.9183 84.1835 27.112C83.9575 27.2086 83.7315 27.3087 83.5055 27.4112C83.0567 27.6197 82.6142 27.8371 82.1779 28.064C81.7448 28.2939 81.3186 28.5356 80.8981 28.7868C81.955 27.1908 82.8276 25.4793 83.4867 23.6718V23.6689C84.4259 21.096 84.9352 18.3389 84.9352 15.4668C84.9352 10.013 83.0982 4.96738 79.9809 0.853027C74.7276 1.6753 69.6908 4.00884 65.6411 7.85483C63.4888 9.89571 61.7891 12.202 60.5376 14.6629C60.4325 14.8732 60.3274 15.0847 60.2254 15.2998ZM36.9622 33.2844L36.9339 33.285C36.7903 33.2886 36.6506 33.2921 36.519 33.2986C36.2439 33.3105 35.9493 33.3312 35.5911 33.3632L35.5672 33.3656L35.5433 33.3685L35.129 33.4147L35.1032 33.4177L35.0774 33.4213L34.8766 33.4485L34.6733 33.4758C34.5543 33.4918 34.4353 33.5113 34.3182 33.5309L34.2156 33.548L34.1942 33.5516L34.1728 33.5551L33.9751 33.5913L33.7756 33.6274L33.7573 33.631L33.7397 33.6345C33.4728 33.6873 33.1908 33.75 32.8534 33.8336L32.8345 33.8383L32.8156 33.8431C32.5953 33.9011 32.3384 33.9698 32.0778 34.0463C31.8877 34.1008 31.6875 34.1647 31.4804 34.2358C31.2626 34.3075 31.0787 34.3733 30.905 34.4408C30.3806 34.6357 29.8386 34.8691 29.2928 35.1345C29.1417 35.2062 29.0051 35.2785 28.8836 35.3425C28.7533 35.41 28.623 35.4805 28.5084 35.5445C28.2289 35.6985 27.9702 35.8537 27.7832 35.9675C27.6957 36.0202 27.6082 36.0765 27.5207 36.1328L27.4282 36.192L27.408 36.205L27.3879 36.2181L27.3967 36.2121C27.3677 36.2305 27.3155 36.2637 27.2525 36.3081C27.172 36.362 27.0914 36.4165 27.0108 36.4728C26.8654 36.5694 26.7414 36.6576 26.6255 36.7459C26.5122 36.8283 26.4014 36.91 26.2881 36.9971C26.1805 37.08 26.076 37.163 25.962 37.2536L25.9482 37.2643L25.935 37.2755L25.8512 37.3448L25.8059 37.3822C25.7316 37.4408 25.668 37.4959 25.6183 37.5398C25.5365 37.6067 25.4628 37.6713 25.3986 37.7281L25.3646 37.7495L25.2079 37.8982L25.1732 37.9302C25.1424 37.9586 25.1122 37.9858 25.082 38.0149L25.0524 38.0421C25.0209 38.0706 24.9894 38.0996 24.9592 38.1286C24.8717 38.2121 24.7836 38.2957 24.7017 38.3762C24.6167 38.4604 24.5355 38.5409 24.4537 38.6251C24.2718 38.8093 24.1075 38.9841 23.9545 39.1559L23.8714 39.2489L23.7952 39.3342L23.782 39.349L23.77 39.3626C23.6844 39.4616 23.5994 39.5611 23.517 39.663L23.4345 39.7613L23.4244 39.7732L23.4131 39.7868L23.4018 39.8004C23.2841 39.945 23.1733 40.0895 23.0593 40.2376C22.9894 40.3265 22.9234 40.4171 22.8573 40.5084L22.805 40.5794L22.7861 40.6055L22.7679 40.6322L22.7005 40.7299L22.63 40.8318C22.4858 41.0374 22.353 41.2382 22.2277 41.4379C21.9734 41.8419 21.7336 42.2613 21.5132 42.6908C21.3905 42.9314 21.2929 43.1334 21.2054 43.3259C21.1582 43.4248 21.1053 43.5404 21.053 43.6677C21.0071 43.7702 20.9637 43.8745 20.9202 43.9788L20.9146 43.9918L20.912 43.9983C20.8843 44.067 20.8573 44.1363 20.8308 44.2068L20.7931 44.3052C20.7458 44.4242 20.7024 44.5469 20.6571 44.6748C20.6187 44.7844 20.5803 44.894 20.545 45.0036C20.5274 45.0552 20.5104 45.1067 20.4934 45.1589L20.4651 45.2436L20.4544 45.2744C19.9294 44.9752 19.4157 44.6571 18.9171 44.3218C17.8205 43.5842 16.766 42.7382 15.7853 41.8105C12.5269 38.7169 10.3041 34.8839 9.30375 30.6588C13.1646 28.3282 17.6027 27.1031 22.2258 27.1031C24.9391 27.1031 27.5981 27.5267 30.1288 28.3614L30.3013 28.4177C30.6727 28.5427 31.0422 28.6778 31.4237 28.8265C31.5968 28.8946 31.7706 28.9645 31.9437 29.0374L32.0488 29.0865L32.1004 29.1031C32.1149 29.109 32.1288 29.1156 32.1433 29.1221L32.1747 29.1363L32.2068 29.1493C32.3655 29.2151 32.5329 29.2909 32.6809 29.3584C32.8918 29.4544 33.0989 29.5528 33.3035 29.6517L33.3721 29.6849C33.5269 29.7625 33.6793 29.8401 33.8304 29.9201C33.8681 29.9408 33.9059 29.9603 33.9443 29.9793L33.9827 30C34.1199 30.0735 34.2559 30.1464 34.3913 30.2228C34.4164 30.237 34.4416 30.2518 34.4674 30.266L34.4983 30.2838L34.5178 30.2951L34.5373 30.3063C34.5776 30.3288 34.6173 30.3513 34.6557 30.3733C35.3613 31.391 36.1419 32.3656 36.9874 33.2862H36.9622V33.2844ZM42.8167 22.3436C42.767 22.4384 42.7172 22.5338 42.6713 22.6286L42.6216 22.7281L42.575 22.8217C42.502 22.968 42.4321 23.1155 42.3572 23.2862C42.2974 23.4189 42.23 23.5681 42.1645 23.7328C42.1425 23.7844 42.1211 23.8365 42.0991 23.8916L42.0928 23.9076L42.0896 23.9159C42.0405 24.0439 41.9914 24.1718 41.9448 24.2998C41.8315 24.5942 41.7289 24.8987 41.6313 25.2305C41.5388 25.532 41.4551 25.8454 41.382 26.1623C41.348 26.2974 41.3204 26.42 41.2964 26.5379L41.292 26.5498L41.2637 26.6991C41.248 26.7802 41.2335 26.8608 41.219 26.9414L41.1888 27.1061L41.1875 27.1138L41.1863 27.1215C41.1277 27.4485 41.0824 27.7791 41.0459 28.1381C41.032 28.272 41.0188 28.4064 41.0081 28.5403C40.981 28.8579 40.964 29.1819 40.9571 29.5071C39.9864 28.7062 38.9603 27.9669 37.8882 27.2986L37.8083 27.1712L37.695 26.9906L37.6112 26.8531C37.571 26.7868 37.53 26.7204 37.4904 26.6529L37.423 26.5362C37.3764 26.4562 37.3292 26.375 37.2851 26.2968L37.2619 26.2554L37.1322 26.0249C37.095 25.9586 37.0604 25.8922 37.0252 25.8241L36.988 25.7512L36.9584 25.7032C36.9427 25.6718 36.9251 25.6398 36.9062 25.6043L36.9037 25.599L36.8325 25.4591L36.7645 25.3253C36.6833 25.1623 36.6015 24.9965 36.5247 24.8347C36.3768 24.5213 36.2364 24.2044 36.0973 23.8715L35.9934 23.6161C35.9499 23.5095 35.9097 23.4035 35.8713 23.2968L35.8524 23.2447L35.831 23.1937C35.8259 23.1813 35.8209 23.1694 35.8159 23.157L35.7605 23.0065C34.8716 20.5871 34.4202 18.0486 34.4202 15.4627C34.4202 11.0883 35.7032 6.88504 38.1438 3.22626C42.6065 4.1694 46.6574 6.28315 49.9284 9.3892C51.3316 10.7215 52.5472 12.1955 53.5575 13.7891L53.4996 13.8045L53.4448 13.8187L53.3913 13.8359L53.2894 13.8685L53.1326 13.9058L53.0678 13.936C52.9796 13.9633 52.8915 13.9923 52.804 14.0213C52.6768 14.0622 52.5421 14.1078 52.3954 14.1605L52.3917 14.1617C52.3092 14.1878 52.2374 14.215 52.1751 14.2411C52.0561 14.2843 51.9296 14.3312 51.7961 14.3862C51.6595 14.4396 51.5217 14.497 51.3851 14.5563C51.2397 14.6161 51.093 14.6801 50.9381 14.7512C50.7694 14.8258 50.612 14.9028 50.4899 14.9639C50.4024 15.0059 50.318 15.0492 50.2349 15.0918L50.1512 15.1345L50.1393 15.1404L50.1273 15.1463C49.8849 15.2725 49.6539 15.3981 49.4418 15.5201L49.4033 15.5421L49.3643 15.5669C49.3505 15.5752 49.3366 15.5835 49.3228 15.5924C49.2069 15.6594 49.0943 15.7269 48.9784 15.7998C48.8147 15.8999 48.6435 16.0083 48.4628 16.1274C48.3779 16.1831 48.296 16.2405 48.2136 16.2992C48.1934 16.3134 48.1726 16.3282 48.1519 16.343C48.1405 16.3507 48.1292 16.3578 48.1179 16.3655L47.975 16.4473L47.9353 16.4852L47.924 16.4923L47.8793 16.535L47.8472 16.5575L47.8201 16.5764L47.7937 16.596C47.6653 16.6919 47.5393 16.7873 47.4141 16.8863C47.2976 16.9745 47.1761 17.0711 47.0446 17.1807C46.9004 17.2974 46.7732 17.4058 46.6568 17.5095L46.5831 17.5746L46.5195 17.6315C46.4327 17.7062 46.3603 17.7743 46.3042 17.827C45.9303 18.1724 45.5721 18.5308 45.2397 18.8928L45.2328 18.9005L45.2259 18.9082C45.0735 19.077 44.9162 19.2583 44.7437 19.4621L44.252 20.0456V20.0841C44.1595 20.2026 44.082 20.3104 44.0222 20.3957C43.868 20.6108 43.7301 20.811 43.603 21.0077C43.5533 21.0818 43.506 21.1552 43.4594 21.2293L43.4091 21.3081L43.3978 21.3252L43.3871 21.3424C43.2882 21.5018 43.19 21.6683 43.095 21.8347C43.0075 21.9911 42.908 22.1659 42.8167 22.3436ZM78.5217 66.6696L78.545 66.6714L78.5569 66.6719L78.5689 66.6725C78.72 66.682 78.871 66.6921 79.0215 66.6986C79.126 66.7045 79.2324 66.7081 79.3388 66.7099C79.3784 66.7116 79.4181 66.7128 79.4578 66.7128H79.5069C79.5383 66.7134 79.5698 66.7134 79.6019 66.7134C79.6781 66.7158 79.7549 66.7164 79.8348 66.7164C80.4474 66.7164 81.0511 66.6868 81.6164 66.6305C81.753 66.6175 81.9072 66.6026 82.0778 66.5795C82.215 66.5629 82.3523 66.5464 82.4939 66.5262C82.786 66.4842 83.0768 66.435 83.3582 66.3799C83.4911 66.3538 83.6233 66.3254 83.7599 66.2958C83.9204 66.2638 84.0715 66.2294 84.2201 66.1903C84.5052 66.1228 84.7721 66.0517 85.034 65.9735C85.1373 65.9439 85.2436 65.9119 85.34 65.8811C85.6339 65.7892 85.9292 65.6885 86.2496 65.5712C86.3806 65.5227 86.5121 65.4711 86.6443 65.4184C86.9301 65.3052 87.1794 65.198 87.3941 65.0979L87.4633 65.0659L87.7101 64.9522L87.7283 64.9439L87.746 64.9356C88.0179 64.8046 88.2301 64.6974 88.4284 64.5902C88.5637 64.5215 88.6877 64.4539 88.8073 64.3846C89.0629 64.2395 89.2719 64.1157 89.462 63.9978C93.0194 61.791 95.5715 58.5049 96.7424 54.7199C96.9766 54.8538 97.2108 54.9924 97.4393 55.1322C98.4238 55.7383 99.3757 56.4231 100.267 57.1678C100.702 57.5374 101.073 57.8692 101.408 58.1897C102.315 59.0481 103.16 59.9871 103.915 60.9764C104.29 61.4699 104.642 61.9729 104.962 62.4711L105.092 62.6731C105.171 62.7999 105.257 62.9409 105.354 63.1038C106.139 64.4178 106.789 65.8189 107.286 67.2632L107.336 67.4107L107.39 67.5718C107.413 67.64 107.433 67.7057 107.454 67.7721L107.457 67.7798L107.459 67.7875C107.525 67.993 107.588 68.2033 107.653 68.4356C107.738 68.7353 107.816 69.0363 107.887 69.3372C104.033 71.6654 99.5966 72.8894 94.9716 72.8894C92.5517 72.8894 90.1784 72.5559 87.9046 71.8977L87.0352 71.6228C86.9855 71.6068 86.9352 71.5902 86.8854 71.573L86.8634 71.563L86.7299 71.5185C86.5266 71.451 86.3189 71.3764 86.0784 71.2875C85.7913 71.1809 85.491 71.0612 85.1366 70.9113C84.0897 70.4682 83.0787 69.9551 82.1294 69.3852C80.8043 68.592 79.5572 67.6761 78.4191 66.6607C78.4524 66.6642 78.487 66.6672 78.5217 66.6696ZM71.7808 49.9871C70.3405 50.6553 68.9606 51.4403 67.6461 52.3396L66.5281 53.105L66.7497 54.3964C66.9285 55.4397 67.1702 56.4664 67.4736 57.4735L64.5602 55.7874L66.2983 58.3639C65.2999 58.1014 64.2826 57.8893 63.2496 57.7294L61.8867 57.5185L61.0809 58.5837C60.1347 59.8348 59.3094 61.1482 58.6082 62.5167C57.9044 61.1494 57.0772 59.8372 56.1291 58.5878L55.3227 57.5238L53.9604 57.7359C52.8795 57.9042 51.8144 58.1299 50.7681 58.413L52.5069 55.7312L49.771 57.3692C50.0562 56.4012 50.2847 55.4154 50.4553 54.4154L50.6756 53.1239L49.5576 52.3597C48.2406 51.4592 46.8576 50.6743 45.4154 50.0078C46.8532 49.3396 48.2343 48.554 49.5513 47.6529L50.6712 46.8869L50.4477 45.5937C50.2759 44.599 50.0467 43.6186 49.7615 42.6547L52.6882 44.4071L50.8336 41.6144C51.8522 41.8851 52.8909 42.102 53.9459 42.2649L55.3088 42.4758L56.1146 41.4106C57.0595 40.1612 57.8842 38.8484 58.5861 37.4787C59.1842 38.6393 59.8716 39.7596 60.6465 40.836V42.6648L63.2357 42.2613C64.26 42.102 65.2691 41.8905 66.2606 41.628L64.479 44.2679L67.4541 42.5297C67.1557 43.5279 66.9178 44.5457 66.7403 45.5801L66.518 46.8757L67.6417 47.6405C68.9599 48.5386 70.3417 49.3218 71.7808 49.9871ZM82.5015 30.3318C82.7583 30.1843 83.012 30.0439 83.2588 29.9124C83.6573 29.705 84.0677 29.5036 84.4788 29.3122C84.6865 29.218 84.8936 29.1262 85.0963 29.0397C85.4841 28.875 85.8977 28.7115 86.3604 28.5409L86.5128 28.4882C86.6796 28.4301 86.8483 28.3709 87.0208 28.314C89.5628 27.4716 92.2363 27.0445 94.9653 27.0445C99.5746 27.0445 104 28.2619 107.851 30.5771C106.855 34.8182 104.629 38.6648 101.361 41.7673C99.9586 43.099 98.4062 44.253 96.7286 45.2128C96.6146 44.8449 96.4862 44.4823 96.3408 44.1162C96.2961 44.0013 96.2489 43.8881 96.201 43.7738L96.1658 43.6891L96.162 43.679L96.1576 43.6689C96.0701 43.4645 95.9775 43.2602 95.88 43.0575C95.7641 42.8182 95.6634 42.6192 95.5627 42.4343C95.3713 42.0688 95.156 41.6997 94.9231 41.3366C94.7966 41.1345 94.6694 40.9473 94.5592 40.7868C94.1759 40.2317 93.7629 39.7062 93.3317 39.2252C93.0811 38.9385 92.7997 38.6417 92.4925 38.3395C92.4038 38.2524 92.3043 38.1541 92.1878 38.0504C88.9553 35.0273 84.7035 33.3294 80.1773 33.2477C81.0183 32.3282 81.7958 31.3531 82.5015 30.3318ZM67.2206 9.34714C70.479 6.25293 74.516 4.14214 78.9642 3.19249C81.4187 6.86075 82.7092 11.0758 82.7092 15.4627C82.7092 18.0355 82.2629 20.5616 81.3834 22.9716L81.3262 23.1298C80.7917 24.561 80.1005 25.9497 79.2676 27.2648C78.1956 27.9349 77.1707 28.6754 76.2006 29.4781C76.1698 28.1108 75.9646 26.7542 75.5869 25.4343C75.5415 25.2785 75.4912 25.1025 75.4301 24.92C75.4238 24.8987 75.4169 24.8774 75.4087 24.8543L75.4043 24.8401L75.3917 24.8016C75.3143 24.5681 75.2306 24.3341 75.1412 24.1025V24.0995L75.099 23.9947C75.0776 23.9402 75.0555 23.8857 75.0335 23.8318L74.9945 23.7346C74.9435 23.6072 74.8894 23.4834 74.8346 23.3661C74.7886 23.2565 74.7376 23.1452 74.6822 23.0332C74.6621 22.9876 74.6426 22.9479 74.6268 22.9165C74.6054 22.8709 74.584 22.8258 74.562 22.7814L74.5343 22.7245L74.5293 22.7133L74.5242 22.702C74.4619 22.5723 74.3945 22.4396 74.324 22.3093L74.3177 22.2974L74.3115 22.2856C74.2907 22.2488 74.2705 22.2109 74.2504 22.173C74.2177 22.1126 74.1856 22.0516 74.1522 21.9923C74.1264 21.9461 74.0993 21.8987 74.0716 21.8507V21.8371L73.7701 21.3442C73.7493 21.3104 73.7285 21.2773 73.7077 21.2441L73.7059 20.9745L73.2085 20.5024C73.2048 20.497 73.201 20.4923 73.1972 20.487L73.1361 20.4011L73.1242 20.3839L73.1116 20.3673C73.0128 20.2322 72.902 20.0812 72.7786 19.9248C72.686 19.7986 72.5954 19.689 72.5268 19.6084C72.37 19.4129 72.1963 19.2091 71.9822 18.9716C71.8784 18.8543 71.7858 18.7536 71.6939 18.6588C71.5882 18.5421 71.4856 18.4396 71.3981 18.3537C71.3338 18.2855 71.2646 18.2162 71.1941 18.1499C71.1658 18.1232 71.1368 18.0966 71.1072 18.0699L71.1028 18.0658C70.8283 17.7962 70.5444 17.5421 70.2586 17.3092C70.1472 17.2133 70.0433 17.1268 69.9439 17.0474L69.9313 17.0355L69.8438 16.968C69.7135 16.8673 69.5832 16.766 69.4579 16.6724C69.0701 16.3797 68.6615 16.1007 68.2442 15.843C67.7808 15.5492 67.293 15.2755 66.7938 15.0296C66.637 14.9508 66.4771 14.8744 66.3172 14.7986L66.304 14.7926L66.2908 14.7867C66.0377 14.6706 65.8249 14.5776 65.6235 14.4952C65.5165 14.4496 65.3918 14.3975 65.2533 14.3471C65.1444 14.3033 65.0374 14.2624 64.9279 14.2216L64.9102 14.215L64.8926 14.2085L64.8315 14.1866C64.7384 14.1528 64.6459 14.1202 64.5521 14.0894C64.4337 14.0492 64.3191 14.0112 64.2008 13.9739C64.0862 13.9378 63.971 13.9011 63.8558 13.8679C63.7639 13.8389 63.6676 13.811 63.5662 13.7838C64.5835 12.1736 65.8061 10.6878 67.2206 9.34714Z" fill="#5A2B3F"/>
<path d="M37.3631 64.6346C30.9131 64.6346 25.3922 60.868 23.1001 55.5292C23.0107 55.3236 22.9283 55.1151 22.8515 54.9065C22.8099 54.8005 22.7753 54.698 22.7369 54.589C22.6286 54.2715 22.5298 53.948 22.441 53.6216C22.3774 53.4041 22.3265 53.1832 22.2818 52.9622C22.1861 52.5149 22.113 52.0611 22.0589 51.605H22.0558C21.8329 51.7015 21.6069 51.8046 21.3872 51.9042H21.3841C19.2922 52.8686 17.3054 54.1109 15.4849 55.6346C15.2746 55.81 15.0675 55.9883 14.8642 56.1696C14.861 56.1725 14.861 56.1725 14.861 56.1725C14.6539 56.3538 14.4537 56.5386 14.2529 56.7288V56.7318C10.1938 60.5926 7.73236 65.387 6.87622 70.3906C11.1997 73.3349 16.5009 75.0707 22.2282 75.0707C25.2688 75.0707 28.1917 74.5807 30.9106 73.6832C32.101 73.2869 33.2505 72.8153 34.3584 72.2685C35.0175 71.9451 35.6672 71.5884 36.2942 71.2105C39.6275 69.2122 42.4609 66.5215 44.5591 63.3503C44.5591 63.3503 44.5591 63.3503 44.5591 63.3473C44.6963 63.1477 44.8267 62.945 44.9507 62.7395C44.1581 63.169 43.3108 63.5345 42.4357 63.8248C40.8462 64.3503 39.1427 64.6346 37.3631 64.6346ZM35.0994 69.4231C34.5126 69.7768 33.919 70.1015 33.3292 70.3906C32.32 70.8888 31.258 71.3248 30.1778 71.6844C27.6257 72.5274 24.9509 72.9545 22.2276 72.9545C17.6208 72.9545 13.1947 71.7359 9.34078 69.4184C10.3329 65.1844 12.5582 61.3384 15.828 58.2288C16.0118 58.0546 16.1987 57.8822 16.3844 57.717L16.4102 57.6939C16.589 57.5351 16.7722 57.3775 16.9573 57.2229C18.0508 56.3082 19.2254 55.4912 20.4669 54.7815C20.5153 54.9367 20.5651 55.0896 20.6161 55.2406L20.6192 55.2495L20.6224 55.2584L20.6412 55.3123C20.6778 55.4166 20.7136 55.5179 20.7533 55.621C20.8433 55.8651 20.939 56.105 21.0353 56.3271C23.7536 62.6589 30.1627 66.7501 37.3625 66.7501C37.8428 66.7501 38.3206 66.7318 38.7959 66.6956C37.6596 67.7152 36.4201 68.6311 35.0994 69.4231Z" fill="#5A2B3F"/>
<path d="M6.14534 98.0296C6.67036 97.7464 7.12802 97.3531 7.5051 96.8608C7.88596 96.3626 8.07922 95.7399 8.07922 95.01C8.07922 94.2932 7.81671 93.6327 7.29925 93.0462C6.77864 92.4638 5.77897 91.9704 4.32793 91.5788C3.42898 91.3388 2.81583 91.0829 2.50673 90.8175C2.20331 90.5574 2.05537 90.2766 2.05537 89.9585C2.05537 89.5539 2.21401 89.2269 2.54136 88.9591C2.86808 88.6913 3.28419 88.5557 3.77836 88.5557C4.29205 88.5557 4.8114 88.7334 5.32383 89.0829C5.84003 89.4354 6.21396 89.8365 6.43618 90.2754C6.62252 90.6445 6.69114 90.7352 6.72702 90.7707C6.79438 90.8382 6.89636 90.8726 7.0317 90.8726C7.23189 90.8726 7.34647 90.7636 7.34584 90.5628L7.0317 88.2138C6.9826 87.8696 6.80759 87.7974 6.6691 87.7974C6.52683 87.7974 6.40471 87.8963 6.30776 88.0906C6.25677 88.1895 6.20641 88.2677 6.15731 88.3252C5.1696 87.9952 4.36444 87.8276 3.76199 87.8276C2.62005 87.8276 1.70284 88.1184 1.03492 88.6925C0.364489 89.2689 0.0245521 89.9792 0.0245521 90.8027C0.0245521 91.2755 0.163046 91.7476 0.435627 92.2056C0.708207 92.6629 1.07773 93.0284 1.53287 93.2909C1.97983 93.548 2.66789 93.8217 3.5788 94.1025C4.49538 94.3827 5.13623 94.6771 5.48372 94.9775C5.82555 95.2731 5.99175 95.6256 5.99175 96.0563C5.99175 96.4816 5.80541 96.8685 5.43777 97.2056C5.06887 97.5432 4.57596 97.715 3.97163 97.715C3.25461 97.715 2.61879 97.4668 2.08182 96.9763C1.53036 96.4781 1.08907 95.846 0.768011 95.0971C0.642738 94.8009 0.502985 94.657 0.339311 94.657C0.124016 94.657 0 94.7713 0 94.9715C0 95.0029 0.00503675 95.0823 0.0163681 95.2085L0.24992 97.9858C0.282026 98.3152 0.395965 98.4828 0.588597 98.4828C0.761084 98.4828 0.900211 98.3578 1.00219 98.1096C1.06137 97.9609 1.13187 97.8347 1.21119 97.734C1.71103 97.9692 2.20268 98.1493 2.67355 98.2695C3.16773 98.3957 3.65372 98.4603 4.11641 98.4603C4.93478 98.4585 5.61718 98.3146 6.14534 98.0296Z" fill="#5A2B3F"/>
<path d="M15.5981 93.5803C17.2122 93.5803 18.3956 93.3154 19.1158 92.7935C19.8435 92.2657 20.2131 91.5566 20.2131 90.6851C20.2131 89.8137 19.8681 89.1235 19.1882 88.6336C18.5165 88.1496 17.3248 87.9043 15.6453 87.9043L12.3611 87.9499C11.967 87.9499 11.6164 87.9422 11.318 87.9274L11.1046 87.9197C10.6117 87.9197 10.5078 88.1069 10.5078 88.2645C10.5078 88.3569 10.5449 88.5714 10.8874 88.5714C11.2733 88.5714 11.5434 88.6584 11.6894 88.8314C11.8405 89.0098 11.9173 89.2538 11.9173 89.5566L11.9255 91.963C11.9255 92.8291 11.923 93.8308 11.9173 94.9695C11.9123 96.0968 11.8814 96.7977 11.8266 97.0524C11.775 97.2935 11.6944 97.4612 11.5874 97.5518C11.4785 97.6437 11.2846 97.7094 11.0102 97.7473C10.8799 97.7651 10.4839 97.8202 10.4839 98.0684C10.4839 98.2633 10.6136 98.3753 10.8389 98.3753C11.0385 98.3753 11.3608 98.3599 11.7958 98.3291C12.317 98.2935 12.7325 98.2758 13.029 98.2758C13.2997 98.2758 13.7826 98.2935 14.4643 98.3291C14.9818 98.3599 15.3028 98.3753 15.4451 98.3753C15.8197 98.3753 16.0098 98.2775 16.0098 98.0838C16.0098 97.9251 15.9298 97.8498 15.8625 97.8149C15.8077 97.7864 15.7001 97.7538 15.3519 97.7461C15.0095 97.7367 14.7533 97.6496 14.5902 97.4878C14.4775 97.3765 14.3435 97.0903 14.3435 96.3629L14.351 93.553C14.8313 93.5708 15.2512 93.5803 15.5981 93.5803ZM14.3504 88.7556C14.8357 88.6792 15.2197 88.6401 15.4929 88.6401C16.035 88.6401 16.4977 88.7941 16.8666 89.0986C17.2317 89.3996 17.4168 89.8611 17.4168 90.4712C17.4168 91.1229 17.2103 91.691 16.803 92.1602C16.4001 92.6241 15.7806 92.8593 14.9616 92.8593C14.815 92.8593 14.6097 92.8492 14.3504 92.8291V88.7556V88.7556Z" fill="#5A2B3F"/>
<path d="M31.9833 97.7762C31.5218 97.717 31.1869 97.5381 30.9779 97.2584C30.757 96.961 30.3459 96.0866 29.7579 94.6642C28.4681 91.5469 27.4564 89.2264 26.7551 87.775L26.7237 87.7217H26.0469L26.0218 87.7815C24.713 90.8099 23.7076 93.243 23.0441 95.0161C22.7533 95.8017 22.4939 96.3846 22.2856 96.7353C22.0835 97.0807 21.8934 97.3183 21.7228 97.4373C21.5522 97.5564 21.3054 97.6577 20.9957 97.7407C20.8251 97.7881 20.7363 97.9012 20.7363 98.0499C20.7363 98.1512 20.7741 98.3769 21.1285 98.3769C21.1978 98.3769 21.2865 98.3651 21.3816 98.3532C21.7605 98.2999 22.159 98.2762 22.5764 98.2762C22.7911 98.2762 23.1329 98.294 23.6006 98.3295C23.9733 98.3532 24.1949 98.3651 24.2837 98.3651C24.657 98.3651 24.7136 98.1808 24.7136 98.0677C24.7136 97.9604 24.6632 97.7703 24.3214 97.7407C24.0684 97.717 23.8348 97.6275 23.6195 97.4847C23.4105 97.3479 23.3098 97.1577 23.3098 96.9077C23.3098 96.5386 23.5377 95.7655 23.9796 94.6115C24.5739 94.6056 25.396 94.6056 26.4391 94.6056C26.616 94.6056 26.8691 94.6056 27.1914 94.6115C27.3935 95.0398 27.5962 95.5215 27.7794 96.0392C27.9689 96.5748 28.0639 96.9433 28.0639 97.1399C28.0639 97.5209 27.7668 97.7347 27.1599 97.7827C26.8565 97.8123 26.8124 97.9729 26.8124 98.0683C26.8124 98.1873 26.8754 98.3834 27.2802 98.3834C27.4256 98.3834 27.7164 98.3657 28.1653 98.336C28.7532 98.2946 29.2398 98.2768 29.6069 98.2768C29.9865 98.2768 30.4605 98.3005 31.01 98.3425C31.4904 98.3781 31.7812 98.3959 31.8951 98.3959C32.2678 98.3959 32.3062 98.1696 32.3062 98.0688C32.3056 97.9723 32.2678 97.8117 31.9833 97.7762ZM24.2893 93.8076L25.5471 90.7377C25.7114 91.1186 25.933 91.6299 26.2112 92.2549C26.4895 92.8733 26.7041 93.3852 26.8559 93.772L24.2893 93.8076Z" fill="#5A2B3F"/>
<path d="M44.8783 89.1494C45.2963 88.8118 45.8219 88.64 46.4401 88.64C47.2761 88.64 47.9793 88.9616 48.5301 89.5967C49.0929 90.246 49.4876 90.8432 49.7041 91.3728C49.7898 91.579 49.9125 91.6838 50.0686 91.6838C50.1757 91.6838 50.4237 91.6447 50.4237 91.281L50.2462 88.5866C50.2159 88.217 50.182 88.1192 50.1517 88.0718C50.1007 87.9913 50.0019 87.9504 49.859 87.9504C49.7255 87.9504 49.5845 88.0576 49.4171 88.2875C49.3145 88.4231 49.2138 88.5505 49.1162 88.6672C48.0347 88.121 46.9563 87.8438 45.9094 87.8438C44.3828 87.8438 43.1011 88.3882 42.1002 89.4616C41.1024 90.5321 40.5969 91.8118 40.5969 93.2662C40.5969 94.7265 41.0993 95.9753 42.0889 96.9771C43.0804 97.9812 44.4477 98.4901 46.1543 98.4901C47.4461 98.4901 48.537 98.1115 49.3969 97.3645C50.272 96.605 50.6969 96.057 50.6969 95.6903C50.6969 95.4759 50.5678 95.3532 50.3431 95.3532C50.2065 95.3532 50.0762 95.4415 49.9434 95.6228C49.0482 96.8544 48.0561 97.4794 46.9941 97.4794C46.0158 97.4794 45.1855 97.0535 44.5257 96.2128C43.8597 95.3645 43.5217 94.201 43.5217 92.7543C43.5217 91.9077 43.6432 91.1725 43.8824 90.5695C44.1197 89.9693 44.4552 89.4918 44.8783 89.1494Z" fill="#5A2B3F"/>
<path d="M54.1919 97.4109C54.032 97.6485 53.7059 97.7693 53.2231 97.7693C52.8592 97.7693 52.8196 97.9838 52.8196 98.0762C52.8196 98.1994 52.8813 98.4056 53.2955 98.4056C53.3509 98.4056 53.4371 98.4008 53.5511 98.3902C54.4513 98.3398 55.1349 98.3138 55.5825 98.3138C55.9804 98.3138 56.5413 98.3292 57.2489 98.3594C57.9583 98.3896 58.7333 98.4079 59.5523 98.4127L62.5456 98.421L63.0864 96.155C63.1204 96.0193 63.1374 95.9097 63.1374 95.8197C63.1374 95.7367 63.1053 95.5436 62.8075 95.5436C62.6608 95.5436 62.5318 95.6485 62.4235 95.8552C61.8003 97.0489 60.4714 97.6544 58.4745 97.6544C57.9313 97.6544 57.5441 97.5904 57.3244 97.4648C57.1116 97.3434 56.9926 97.1905 56.9599 96.998C56.9234 96.7847 56.9051 96.0928 56.9051 94.9405C56.9051 94.6822 56.9177 94.1455 56.9423 93.3451C57.6946 93.3635 58.2523 93.4873 58.6023 93.7136C58.9618 93.9459 59.1953 94.2906 59.2973 94.7397C59.3256 94.8576 59.4106 95.2172 59.6662 95.2172C59.8922 95.2172 60.0213 95.1052 60.0213 94.9103C60.0213 94.8683 60.0143 94.8197 60.0011 94.7604C59.9608 94.5898 59.9407 94.3961 59.9407 94.184C59.9407 92.6224 59.9728 91.6739 60.0351 91.3671C60.0471 91.3149 60.0534 91.2669 60.0534 91.2243C60.0534 91.0489 59.9356 90.9482 59.7304 90.9482C59.6158 90.9482 59.4635 91.0021 59.3867 91.2604C59.3697 91.3185 59.2998 91.4701 59.0656 91.8629C58.885 92.1656 58.6646 92.3659 58.411 92.4565C58.1466 92.5513 57.8268 92.5993 57.4604 92.5993L56.9423 92.5928C56.9328 92.2077 56.9284 91.9305 56.9284 91.7604C56.9284 90.7231 56.9744 89.7539 57.0657 88.8783C57.4874 88.8114 57.9281 88.777 58.3776 88.777C59.2211 88.777 59.8733 88.8961 60.3159 89.1313C60.7597 89.3665 61.2595 89.8647 61.8028 90.6129C61.93 90.7823 62.0502 90.8653 62.1704 90.8653C62.3801 90.8653 62.5003 90.7504 62.4984 90.5329C62.3322 89.7379 62.1629 88.9423 61.991 88.1467L61.9753 88.0726L55.4 88.0513L53.4567 87.9956C53.0997 87.9956 53.0613 88.2207 53.0613 88.3173C53.0613 88.4168 53.106 88.588 53.4025 88.623C53.7972 88.6769 54.0667 88.7539 54.2026 88.8534C54.3304 88.9464 54.411 89.136 54.4431 89.4162C54.4777 89.7195 54.4947 90.5501 54.4947 91.8843L54.4463 95.8203C54.4469 96.6248 54.3606 97.1597 54.1919 97.4109Z" fill="#5A2B3F"/>
<path d="M76.9635 88.6019C77.3759 88.5634 77.4621 88.3934 77.4621 88.2577C77.4621 88.1635 77.4231 87.9431 77.0586 87.9431C76.944 87.9431 76.8068 87.9503 76.6381 87.9645C76.2572 88.0012 75.6919 88.0196 74.9566 88.0196C74.3706 88.0196 73.9223 88.0036 73.6239 87.9716C73.4596 87.9526 73.323 87.9431 73.2173 87.9431C72.9812 87.9431 72.8459 88.0575 72.8459 88.2577C72.8459 88.3661 72.8956 88.5527 73.233 88.5871C73.5855 88.6161 73.8978 88.7162 74.1616 88.8851C74.4228 89.0521 74.589 89.2731 74.6696 89.561C74.7527 89.8602 74.7948 90.3673 74.7948 91.0687L74.7867 94.093C74.7867 94.1706 74.7848 94.3199 74.7816 94.5397C73.0996 92.8892 70.9926 90.6973 68.5154 88.0208L68.4877 87.9905L68.4449 87.9894C67.8437 87.9739 67.1871 87.9662 66.4928 87.9662C66.173 87.9662 65.9508 87.9609 65.8343 87.9514C65.7279 87.9408 65.6467 87.936 65.5907 87.936C65.2186 87.936 65.1626 88.1523 65.1626 88.2808C65.1626 88.3999 65.2312 88.5533 65.5554 88.6084C66.032 88.6949 66.4468 88.9686 66.7874 89.42C67.1317 89.8774 67.3206 90.3957 67.3489 90.9609C67.3785 91.5444 67.393 93.1665 67.393 95.7814C67.393 96.3732 67.3181 96.8448 67.1708 97.1837C67.0335 97.4988 66.6778 97.6807 66.1138 97.7228C65.9665 97.734 65.517 97.7678 65.517 98.0368C65.517 98.2559 65.6668 98.3815 65.9287 98.3815C66.0294 98.3815 66.1912 98.3691 66.4248 98.3425C66.7779 98.2974 67.359 98.2743 68.1509 98.2743C68.6445 98.2743 69.0549 98.2945 69.3722 98.3348C69.5673 98.3555 69.7235 98.3661 69.8506 98.3661C70.2 98.3661 70.2378 98.141 70.2378 98.0439C70.2378 97.9562 70.2019 97.7524 69.8663 97.7524C69.6001 97.7524 69.2954 97.66 68.9605 97.4781C68.6331 97.3004 68.443 97.019 68.3801 96.6191C68.314 96.2003 68.2806 95.612 68.2806 94.8703C68.2806 92.9692 68.2837 91.7642 68.2907 91.2725C68.8453 91.9005 69.7297 92.8632 70.9252 94.1404C72.2491 95.5551 73.2601 96.6132 73.9311 97.2856C74.9535 98.3104 75.029 98.3466 75.0655 98.3638C75.1442 98.4011 75.2141 98.4195 75.2783 98.4195C75.4476 98.4195 75.6497 98.3306 75.6497 97.9082L75.7057 94.6511L75.6655 90.327C75.6655 89.6552 75.8014 89.2032 76.0702 88.9834C76.3472 88.7595 76.6469 88.6303 76.9635 88.6019Z" fill="#5A2B3F"/>
<path d="M88.7725 88.8824C89.1748 88.9748 89.5342 89.165 89.8396 89.4476C90.1493 89.7343 90.4067 90.0826 90.6057 90.4843C90.7479 90.7669 90.9028 90.9037 91.0791 90.9037C91.3088 90.9037 91.441 90.7615 91.4404 90.5044L91.3195 89.2971C91.2604 88.646 91.2113 88.2088 91.1735 87.9973L91.1603 87.9221L91.0797 87.9203C90.826 87.915 90.6453 87.9126 90.5377 87.9126C90.2576 87.9126 89.9056 87.9227 89.4612 87.9434C88.2506 87.9991 87.1244 88.0275 86.1134 88.0275C84.7782 88.0275 82.6964 87.9914 79.9272 87.9203L79.8447 87.9179L79.829 87.9944C79.7427 88.4079 79.6653 88.9345 79.5979 89.5589C79.4966 90.4979 79.4966 90.5554 79.4966 90.5737C79.4966 90.7781 79.6319 90.896 79.868 90.896C80.0273 90.896 80.1632 90.7799 80.2709 90.5506C80.495 90.0755 80.7877 89.6839 81.1409 89.3853C81.4909 89.0897 81.8579 88.9067 82.2331 88.8415C82.6064 88.7763 83.2164 88.742 84.0474 88.7402C84.1802 90.0803 84.2482 91.8291 84.2482 93.9393C84.2482 95.3001 84.2198 96.1952 84.1644 96.5998C84.1116 96.9843 83.9731 97.2669 83.7521 97.4387C83.5299 97.6123 83.1874 97.7005 82.7348 97.7005C82.371 97.7005 82.3313 97.9203 82.3313 98.0151C82.3313 98.0998 82.3653 98.2497 82.6102 98.2989C82.8632 98.3089 83.0307 98.3143 83.1163 98.3143C83.1169 98.3143 83.1176 98.3143 83.1182 98.3143L84.1342 98.2758C84.41 98.2657 85.2063 98.2604 86.4987 98.2604L88.1669 98.2983L88.3961 98.306C88.7316 98.306 88.7675 98.0915 88.7675 97.9991C88.7675 97.896 88.7152 97.7183 88.3627 97.6928C87.6192 97.6437 87.3391 97.5536 87.2352 97.4867C87.0886 97.3925 86.9828 97.2396 86.9199 97.0329C86.8525 96.8119 86.7939 96.1413 86.7461 95.0394C86.6983 93.9333 86.6737 92.7675 86.6737 91.5755C86.6737 90.4523 86.714 89.4985 86.7933 88.7396C87.7067 88.7426 88.3728 88.7906 88.7725 88.8824Z" fill="#5A2B3F"/>
<path d="M94.8714 97.4103C94.7115 97.6485 94.3854 97.7687 93.9025 97.7687C93.538 97.7687 93.499 97.9832 93.499 98.0756C93.499 98.1988 93.5607 98.405 93.9749 98.405C94.0303 98.405 94.1166 98.4002 94.2305 98.3896C95.1307 98.3392 95.8144 98.3132 96.262 98.3132C96.6605 98.3132 97.2207 98.3286 97.9283 98.3588C98.6378 98.389 99.4121 98.4073 100.232 98.4121L103.225 98.4204L103.766 96.1544C103.8 96.0187 103.817 95.9091 103.817 95.8191C103.817 95.7361 103.785 95.543 103.487 95.543C103.34 95.543 103.211 95.6479 103.103 95.8546C102.48 97.0484 101.151 97.6538 99.154 97.6538C98.6107 97.6538 98.2236 97.5898 98.0039 97.4642C97.7911 97.3428 97.6715 97.1899 97.6387 96.9974C97.6022 96.7841 97.5833 96.0922 97.5833 94.9399C97.5833 94.6816 97.5959 94.1455 97.6205 93.3446C98.3727 93.3629 98.9311 93.4867 99.2805 93.713C99.64 93.9453 99.8735 94.2901 99.9755 94.7391C100.004 94.857 100.089 95.2166 100.344 95.2166C100.57 95.2166 100.699 95.1046 100.699 94.9097C100.699 94.8677 100.693 94.8185 100.679 94.7598C100.639 94.5886 100.619 94.3949 100.619 94.1834C100.619 92.6212 100.651 91.6727 100.713 91.3665C100.726 91.3131 100.732 91.2669 100.732 91.2243C100.732 91.0489 100.614 90.9482 100.409 90.9482C100.294 90.9482 100.142 91.0021 100.065 91.2604C100.048 91.3185 99.978 91.4707 99.7438 91.8629C99.5632 92.1656 99.3428 92.3653 99.0898 92.4565C98.826 92.5513 98.5056 92.5993 98.1392 92.5993L97.6211 92.5928C97.6117 92.2077 97.6073 91.9304 97.6073 91.7604C97.6073 90.7219 97.6532 89.7533 97.7445 88.8783C98.1663 88.8114 98.6076 88.777 99.057 88.777C99.9006 88.777 100.553 88.8961 100.995 89.1313C101.439 89.3665 101.939 89.8647 102.482 90.6129C102.609 90.7823 102.73 90.8653 102.85 90.8653C103.06 90.8653 103.18 90.7504 103.178 90.5329C103.012 89.7379 102.842 88.9423 102.67 88.1467L102.655 88.0726L96.0794 88.0513L94.1355 87.9956C93.7785 87.9956 93.7401 88.2207 93.7401 88.3173C93.7401 88.4168 93.7848 88.588 94.0813 88.623C94.476 88.6769 94.7455 88.7539 94.8815 88.8534C95.0086 88.9464 95.0898 89.136 95.1219 89.4162C95.1565 89.7201 95.1735 90.5507 95.1735 91.8842L95.1251 95.8203C95.1257 96.6248 95.0401 97.1597 94.8714 97.4103Z" fill="#5A2B3F"/>
<path d="M116.723 97.7168C116.287 97.6931 115.965 97.5504 115.724 97.2826C115.484 97.0148 115.25 96.4319 115.029 95.5634C114.788 94.5936 114.422 93.9331 113.935 93.6001C113.594 93.3679 113.183 93.1896 112.709 93.0764C113.132 93.0047 113.518 92.904 113.86 92.7731C114.365 92.5711 114.789 92.2612 115.124 91.8566C115.465 91.4401 115.635 90.9704 115.635 90.4526C115.635 89.6789 115.275 89.0426 114.554 88.5663C113.853 88.0966 112.867 87.8584 111.634 87.8584C111.254 87.8584 110.831 87.8762 110.363 87.9058C109.319 87.965 108.023 87.9953 106.519 87.9953C106.064 87.9953 105.969 88.1676 105.969 88.3104C105.969 88.4236 106.025 88.6137 106.405 88.6256C106.936 88.6315 107.258 88.7802 107.372 89.0539C107.498 89.3513 107.567 90.2138 107.567 91.612L107.555 94.3608L107.567 95.7826C107.567 97.1274 107.353 97.4425 107.233 97.5136C106.992 97.6445 106.727 97.7156 106.449 97.7156C106.095 97.7156 106.057 97.9301 106.057 98.0189C106.057 98.138 106.113 98.3341 106.487 98.3341C106.619 98.3341 106.917 98.3223 107.403 98.2986C107.916 98.269 108.345 98.2571 108.674 98.2571L111.153 98.3223C111.506 98.3223 111.564 98.1321 111.564 98.0189C111.564 97.888 111.481 97.7216 111.108 97.6979C110.685 97.6801 110.4 97.5906 110.255 97.4301C110.109 97.2636 110.033 96.984 110.021 96.5912C110.008 96.1866 110.002 95.1037 109.996 93.3667C110.166 93.3548 110.305 93.3489 110.407 93.3489C110.811 93.3489 111.171 93.4384 111.481 93.6049C111.778 93.7713 112.012 94.0569 112.164 94.4437C112.322 94.8543 112.474 95.5622 112.626 96.5557C112.746 97.359 112.973 97.9301 113.309 98.2453L113.34 98.2749L116.482 98.3519C116.659 98.3519 117.19 98.3519 117.19 98.0367C117.191 97.9016 117.109 97.7405 116.723 97.7168ZM112.551 91.6546C112.368 91.9935 112.045 92.2494 111.596 92.404C111.135 92.5646 110.674 92.6481 110.218 92.6481C110.162 92.6481 110.092 92.6422 109.997 92.6422V88.7097C110.295 88.6327 110.56 88.5966 110.794 88.5966C111.394 88.5966 111.894 88.7689 112.267 89.1025C112.646 89.4413 112.836 89.9236 112.836 90.5302C112.835 90.923 112.74 91.3033 112.551 91.6546Z" fill="#5A2B3F"/>
</svg>
