<svg width="40" height="40" viewBox="0 0 40 40" fill="none" xmlns="http://www.w3.org/2000/svg">
<path d="M28.06 0H11.9001C10.3802 0 9.1001 1.24 9.1001 2.8V37.2C9.1001 38.7199 10.3401 40 11.9001 40H28.1001C29.62 40 30.9001 38.76 30.9001 37.2V2.8C30.86 1.24 29.62 0 28.06 0ZM19.98 2.20008C20.4199 2.20008 20.7801 2.56023 20.7801 3.00016C20.7801 3.44008 20.4199 3.80023 19.98 3.80023C19.5401 3.80023 19.1799 3.44008 19.1799 3.00016C19.1799 2.56023 19.5401 2.20008 19.98 2.20008ZM22.3803 37.7999H17.5803V36.1998H22.3803V37.7999ZM29.2603 33.9601H10.6601V6.03992H29.2603V33.9601Z" fill="#E24486"/>
</svg>
